<?xml version="1.0" encoding="utf-8"?>
<!-- Generator: Adobe Illustrator 28.0.0, SVG Export Plug-In . SVG Version: 6.00 Build 0)  -->
<svg version="1.1" id="Layer_2" xmlns="http://www.w3.org/2000/svg" xmlns:xlink="http://www.w3.org/1999/xlink" x="0px" y="0px"
	 viewBox="0 0 621 621" style="enable-background:new 0 0 621 621;" xml:space="preserve">
<style type="text/css">
	.st0{display:none;}
	.st1{display:inline;fill:#818181;}
	.st2{fill:#818181;}
</style>
<g>
	<g class="st0">
		<path class="st1" d="M183.8,287.1c0.6,0,1.2-0.2,1.7-0.5l7.4-4.3c1.6-1,2.2-3.1,1.2-4.7c-1-1.6-3.1-2.2-4.7-1.2l-7.4,4.3
			c-1.6,1-2.2,3.1-1.2,4.7C181.5,286.5,182.7,287.1,183.8,287.1z"/>
		<path class="st1" d="M155.4,296.4l-7.4,4.3c-1.6,1-2.2,3.1-1.2,4.7c0.6,1.1,1.8,1.7,2.9,1.7c0.6,0,1.2-0.2,1.7-0.5l7.4-4.3
			c1.6-1,2.2-3.1,1.2-4.7C159.2,296,157.1,295.5,155.4,296.4z"/>
		<polygon class="st1" points="210,347.2 208.8,347.9 221.4,368.6 224.3,363.6 213.2,345.3 		"/>
		<polygon class="st1" points="185.6,309.6 170.3,284.5 164.3,288 179.6,313.2 		"/>
		<polygon class="st1" points="168.5,328.2 184.4,354.3 199.3,345.5 183.4,319.4 		"/>
		<polygon class="st1" points="350.9,264 362,282.3 367.8,282.1 355.3,261.5 		"/>
		<polygon class="st1" points="357.6,252.1 372.5,243.3 356.6,217.1 341.7,226 		"/>
		<path class="st1" d="M245.2,244.1c-32.1,18.9-44.9,46.8-49.3,59.9l126.3-74.5C308.2,227.2,277.3,225.2,245.2,244.1z"/>
		<polygon class="st1" points="338,219.7 322.7,194.6 316.7,198.1 332,223.3 		"/>
		<polygon class="st1" points="309.2,280.7 344.4,259.9 344.4,259.9 351.7,255.6 335.8,229.4 189.3,315.9 205.2,342 247.8,316.9 
			247.8,316.9 309.2,280.7 		"/>
		<path class="st1" d="M268.7,344.6l55.4-32.7l-14.3-23.6L254.3,321L268.7,344.6z M279.1,313.6c0.7-2.6,2.3-4.8,4.6-6.2
			c4.8-2.8,11-1.3,13.9,3.4l0,0c1.4,2.3,1.8,5,1.2,7.6c-0.7,2.6-2.3,4.8-4.6,6.2c-1.6,1-3.4,1.4-5.2,1.4c-3.4,0-6.8-1.7-8.7-4.9
			C278.8,318.9,278.4,316.2,279.1,313.6z"/>
		<path class="st1" d="M290.6,318.8c0.8-0.4,1.3-1.1,1.5-2c0.2-0.8,0.1-1.7-0.4-2.4c-0.6-1-1.7-1.6-2.8-1.6c-0.6,0-1.2,0.2-1.7,0.5
			c-0.8,0.4-1.3,1.1-1.5,2c-0.2,0.8-0.1,1.7,0.4,2.4C287,319.2,289.1,319.7,290.6,318.8z"/>
		<path class="st1" d="M302.2,217.2c0.6,0,1.2-0.2,1.7-0.5l8.3-4.9c1.6-1,2.2-3.1,1.2-4.7s-3.1-2.2-4.7-1.2l-8.3,4.9
			c-1.6,1-2.2,3.1-1.2,4.7C299.9,216.6,301,217.2,302.2,217.2z"/>
		<path class="st1" d="M336,197.3c0.6,0,1.2-0.2,1.7-0.5l7.6-4.5c1.6-1,2.2-3.1,1.2-4.7s-3.1-2.2-4.7-1.2l-7.6,4.5
			c-1.6,1-2.2,3.1-1.2,4.7C333.7,196.7,334.8,197.3,336,197.3z"/>
	</g>
	<path class="st2" d="M532.6,596.8c-1.4,0-141.4-0.5-174.8-44c-18.4-24-4.1-52.9,11-83.5c12.1-24.5,24.6-49.8,22.2-75.3
		c-5.6-58.8-66.4-64.8-67.1-64.9c-1.9-0.2-3.5,1.2-3.7,3.1c-0.2,1.9,1.2,3.5,3.1,3.7c2.3,0.2,55.8,5.7,60.9,58.7
		c2.3,23.6-9.8,48-21.5,71.6c-15.4,31.1-31.3,63.3-10.3,90.7c35.4,46.1,174.3,46.6,180.2,46.6c1.9,0,3.4-1.5,3.4-3.4
		C536,598.3,534.5,596.8,532.6,596.8z"/>
	<path class="st2" d="M371.7,311.9c42.2,33.3,54.6,77.3,37.9,134.4c-0.5,1.8,0.5,3.7,2.3,4.2c0.3,0.1,0.6,0.1,1,0.1
		c1.5,0,2.8-1,3.3-2.5c17.4-59.3,3.9-106.9-40.2-141.7c-1.5-1.2-3.6-0.9-4.8,0.6C369.9,308.6,370.2,310.7,371.7,311.9z"/>
	<path class="st2" d="M253,359.1c-1.9-0.3-3.6,1-3.9,2.9c-0.3,1.9,1,3.6,2.9,3.9c42.2,6.3,64.9,28.8,69.3,68.7c0.2,1.8,1.7,3,3.4,3
		c0.1,0,0.3,0,0.4,0c1.9-0.2,3.2-1.9,3-3.8C323.4,391,298.1,365.8,253,359.1z"/>
	<path class="st2" d="M296.4,344.2c-1.9-0.3-3.6,1-3.9,2.8c-0.3,1.9,1,3.6,2.8,3.9c18.6,3.1,30.9,12.8,37.5,29.7
		c0.5,1.3,1.8,2.2,3.2,2.2c0.4,0,0.8-0.1,1.2-0.2c1.8-0.7,2.6-2.7,1.9-4.4C331.7,359.1,317.3,347.6,296.4,344.2z"/>
</g>
<g>
	<path class="st2" d="M249.8,302l9.5-6.8c-20.9-11.1-43.5-10.2-64.7,2.5l27.6,8.7C231.5,309.3,241.8,307.7,249.8,302z"/>
	
		<rect x="349.2" y="59.5" transform="matrix(0.8133 -0.5819 0.5819 0.8133 28.2575 216.7085)" class="st2" width="5.1" height="9.7"/>
	<path class="st2" d="M261,207.3l2.4-46.1c-3.4,1-6.7,2.4-9.7,4.6L193,209.3c-3,2.2-5.5,4.8-7.5,7.7l44.4,12.6L261,207.3L261,207.3z
		 M250.7,205.6l-18.9,13.5c-1.6,1.1-3.7,0.8-4.8-0.8c-1.1-1.6-0.8-3.7,0.8-4.8l18.9-13.5c1.6-1.1,3.7-0.8,4.8,0.8
		C252.6,202.3,252.2,204.4,250.7,205.6z M210.4,211.1c-1.1-1.6-0.8-3.7,0.8-4.8l33.9-24.3c1.6-1.1,3.7-0.8,4.8,0.8
		c1.1,1.6,0.8,3.7-0.8,4.8l-33.9,24.3C213.7,213,211.5,212.6,210.4,211.1z"/>
	
		<rect x="62.8" y="264.4" transform="matrix(0.8133 -0.5819 0.5819 0.8133 -144.4991 88.29)" class="st2" width="5.1" height="9.7"/>
	<polygon class="st2" points="83.4,284.3 107.3,267.2 101,258.3 77.1,275.4 67.3,282.4 43.4,299.5 49.8,308.3 73.6,291.3 	"/>
	
		<rect x="85.8" y="291.5" transform="matrix(0.8133 -0.5819 0.5819 0.8133 -158.9461 107.7249)" class="st2" width="5.1" height="20"/>
	<path class="st2" d="M379.8,113.8l-2.8,2l6.1,8.5c1.1,1.6,0.8,3.7-0.8,4.8l-51,36.5c-14.5,10.4-32.9,4.5-45.9-2.2
		c-4.7-2.4-9.8-3.5-14.9-3.3l-2.6,49.2c-0.1,1.1-0.6,2-1.4,2.6l-33.8,24.2c-0.9,0.6-1.9,0.8-3,0.5l-47.4-13.4
		c-1.8,4.7-2.5,9.9-1.7,15.1c2.2,14.4,1.8,33.7-12.7,44.1l-51,36.5c-1.6,1.1-3.7,0.8-4.8-0.8l-6.1-8.5l-2.8,2l-9.8,7l-2.8,2
		l28.3,39.5l15.5-11.1l-6.2-8.6c-1.1-1.6-0.8-3.7,0.8-4.8l31.3-22.4l16.3-11.7l8-5.8c26.2-18.8,54.9-20.5,81-5.2l42-30.1
		c-6.1-29.6,4.8-56.2,31.1-75l8-5.8l16.3-11.7l31.3-22.4c1.6-1.1,3.7-0.8,4.8,0.8l6.2,8.6l15.5-11.1l-28.3-39.5l-2.8,2L379.8,113.8z
		"/>
	<polygon class="st2" points="363.5,70.4 353.8,77.4 329.9,94.5 336.2,103.4 360.1,86.3 369.9,79.3 393.8,62.2 387.4,53.3 	"/>
	
		<rect x="372.3" y="86.6" transform="matrix(0.8133 -0.5819 0.5819 0.8133 13.8105 236.1434)" class="st2" width="5.1" height="20"/>
	<path class="st2" d="M336.2,224.8l0.7-29c-18.9,16-27.1,37.1-23.3,60.4l9.5-6.8C331.1,243.8,336,234.6,336.2,224.8z"/>
	<g>
		<path class="st2" d="M304.3,301c4.6-3.3,5.7-9.7,2.4-14.3c-3.3-4.6-9.7-5.7-14.3-2.4c-4.6,3.3-5.7,9.7-2.4,14.3
			C293.3,303.2,299.7,304.3,304.3,301z M295.6,288.8c2.1-1.5,5-1,6.5,1.1c1.5,2.1,1,5-1.1,6.5c-2.1,1.5-5,1-6.5-1.1
			S293.5,290.3,295.6,288.8z"/>
		<path class="st2" d="M292.6,318.8l13.4-9.6c1.2-0.9,2.1-1.5,2.8-1.9c0.6-0.5,1.5-1.2,2.7-2l13.4-9.6l-15.6-31.9l-41.8,29.9
			L292.6,318.8z M289.8,280.7c6.6-4.7,15.7-3.2,20.4,3.4c4.7,6.6,3.2,15.7-3.4,20.4c-6.6,4.7-15.7,3.2-20.4-3.4
			C281.7,294.6,283.3,285.4,289.8,280.7z"/>
	</g>
</g>
</svg>
