<?xml version="1.0" encoding="utf-8"?>
<!-- Generator: Adobe Illustrator 28.0.0, SVG Export Plug-In . SVG Version: 6.00 Build 0)  -->
<svg version="1.1" id="Layer_2" xmlns="http://www.w3.org/2000/svg" xmlns:xlink="http://www.w3.org/1999/xlink" x="0px" y="0px"
	 viewBox="0 0 621 621" style="enable-background:new 0 0 621 621;" xml:space="preserve">
<style type="text/css">
	.st0{clip-path:url(#SVGID_00000016057980997018245220000003991417373717223568_);}
	.st1{fill:#818181;}
</style>
<g>
	<defs>
		<path id="SVGID_1_" d="M590,310.5C590,464.9,464.9,590,310.5,590S31,464.9,31,310.5c0-110,63.6-205.2,156-250.8
			c3.2-1.6,6.5-3.1,9.7-4.6c5.5-2.5,11.1-4.7,16.8-6.8c30.2-11.2,62.9-17.3,97-17.3c108.4,0,202.6,61.5,248.7,151.8
			c2,3.9,19.8,49.8,20.9,53.5C586.5,260,590,284.8,590,310.5z"/>
	</defs>
	<clipPath id="SVGID_00000145041226368325575430000015292795665433141652_">
		<use xlink:href="#SVGID_1_"  style="overflow:visible;"/>
	</clipPath>
</g>
<g>
	<defs>
		<path id="SVGID_00000011725898575431646880000009625872464451109562_" d="M590,310.5C590,464.9,464.9,590,310.5,590
			S31,464.9,31,310.5c0-110,63.6-205.2,156-250.8c3.2-1.6,6.5-3.1,9.7-4.6c5.5-2.5,11.1-4.7,16.8-6.8c30.2-11.2,62.9-17.3,97-17.3
			c108.4,0,202.6,61.5,248.7,151.8c2,3.9,19.8,49.8,20.9,53.5C586.5,260,590,284.8,590,310.5z"/>
	</defs>
	<clipPath id="SVGID_00000129895893077034175240000015930129118826623115_">
		<use xlink:href="#SVGID_00000011725898575431646880000009625872464451109562_"  style="overflow:visible;"/>
	</clipPath>
	<g style="clip-path:url(#SVGID_00000129895893077034175240000015930129118826623115_);">
		<path class="st1" d="M254.3,241.9l11.5-1.9c-13.8-19.3-34.4-28.5-59.1-26.5l20.9,20.1C234.7,240.3,244.6,243.5,254.3,241.9z"/>
		
			<rect x="448.7" y="69.5" transform="matrix(0.9872 -0.1596 0.1596 0.9872 -6.0802 72.9936)" class="st1" width="5.1" height="9.7"/>
		<path class="st1" d="M306.4,162.1l22.7-40.2c-3.5-0.7-7.1-0.8-10.7-0.2l-73.7,11.9c-3.7,0.6-7,1.9-10.1,3.6l34.2,31L306.4,162.1
			L306.4,162.1z M297.9,155.9l-23,3.7c-1.9,0.3-3.7-1-4-2.9s1-3.7,2.9-4l23-3.7c1.9-0.3,3.7,1,4,2.9S299.8,155.6,297.9,155.9z
			 M259.4,142.9c-0.3-1.9,1-3.7,2.9-4l41.2-6.7c1.9-0.3,3.7,1,4,2.9s-1,3.7-2.9,4l-41.2,6.7C261.5,146.1,259.7,144.8,259.4,142.9z"
			/>
		
			<rect x="101" y="125.7" transform="matrix(0.9872 -0.1596 0.1596 0.9872 -19.5145 18.208)" class="st1" width="5.1" height="9.7"/>
		<polygon class="st1" points="113.1,152 142.1,147.3 140.4,136.6 111.4,141.3 99.5,143.2 70.5,147.9 72.3,158.6 101.3,153.9 		"/>
		
			<rect x="107.3" y="159.7" transform="matrix(0.9872 -0.1596 0.1596 0.9872 -25.6778 19.7194)" class="st1" width="5.1" height="20"/>
		<path class="st1" d="M454.4,131.1l-3.5,0.6l1.7,10.3c0.3,1.9-1,3.7-2.9,4l-61.9,10c-17.6,2.8-31.5-10.6-40.1-22.4
			c-3.1-4.3-7.2-7.5-11.8-9.6L311.7,167c-0.5,0.9-1.4,1.6-2.5,1.7l-41,6.6c-1,0.2-2.1-0.1-2.9-0.9l-36.5-33.1
			c-3.7,3.4-6.6,7.8-8.2,12.8c-4.4,13.9-13.4,31-31,33.9l-61.9,10c-1.9,0.3-3.7-1-4-2.9l-1.7-10.3l-3.5,0.6l-11.9,1.9l-3.5,0.6
			l7.8,48l18.8-3l-1.7-10.5c-0.3-1.9,1-3.7,2.9-4l38-6.1l19.8-3.2l9.8-1.6c31.8-5.1,58.3,6,74.8,31.3l51-8.2
			c7.7-29.3,29.3-48.2,61.2-53.3l9.8-1.6l19.8-3.2l38-6.1c1.9-0.3,3.7,1,4,2.9l1.7,10.5l18.8-3l-7.8-48l-3.5,0.6L454.4,131.1z"/>
		<polygon class="st1" points="459.1,85 447.2,87 418.3,91.6 420,102.4 449,97.7 460.9,95.8 489.9,91.1 488.1,80.4 		"/>
		
			<rect x="455.1" y="103.5" transform="matrix(0.9872 -0.1596 0.1596 0.9872 -12.2436 74.5049)" class="st1" width="5.1" height="20"/>
		<path class="st1" d="M366,211.2l13.5-25.6c-24,5.9-40.7,21.2-47.7,43.8l11.5-1.9C353,225.9,361.5,219.8,366,211.2z"/>
		<g>
			<path class="st1" d="M303.6,265.2c5.6-0.9,9.4-6.2,8.5-11.8c-0.9-5.6-6.2-9.4-11.8-8.5s-9.4,6.2-8.5,11.8
				C292.7,262.3,298,266.1,303.6,265.2z M301.2,250.5c2.5-0.4,4.9,1.3,5.3,3.9c0.4,2.5-1.3,4.9-3.9,5.3c-2.5,0.4-4.9-1.3-5.3-3.9
				C296.9,253.3,298.6,250.9,301.2,250.5z"/>
			<path class="st1" d="M285.2,276l16.3-2.6c1.5-0.2,2.5-0.4,3.4-0.5c0.8-0.2,1.9-0.4,3.3-0.6l16.3-2.6l0.2-35.5l-50.8,8.2
				L285.2,276z M299.6,240.6c8-1.3,15.5,4.1,16.8,12.1c1.3,8-4.1,15.5-12.1,16.8c-8,1.3-15.5-4.1-16.8-12.1
				C286.2,249.4,291.6,241.9,299.6,240.6z"/>
		</g>
	</g>
</g>
<g>
	<path class="st1" d="M164.2,452.6c3-0.5,6,0.3,8.3,2.2l0.9,0.7l-8.7-33c-0.6-2.3-2.6-2.7-3.2-2.7c-1.1-0.1-2.6,0.4-3.4,1.8V449
		l0.7,1.1C159.9,451.9,162,452.9,164.2,452.6z"/>
	<path class="st1" d="M169.2,458.8c-1.2-1-2.8-1.4-4.3-1.1c-2.5,0.4-4.9-0.1-7-1.3v43.8c0,9.1,12.3,18.1,33.9,25.4L175.6,464
		L169.2,458.8z"/>
	<path class="st1" d="M194.8,482.5l3.1-3.3c2.2-2.4,5.5-3.5,8.7-3.1c2.3,0.3,4.5-1,5.3-3.3l2.9-9.1l-2.7-7.2
		c-0.9-2.5-3.1-4.3-5.8-4.7c-2.7-0.4-5.3,0.5-7,2.6l-15.8,19.1l2.9,11l5.4-0.6C192.9,483.9,194,483.3,194.8,482.5z"/>
	<path class="st1" d="M232.7,362.2c-2.8-0.3-5.4,1-7.1,3.3l-2.1,3l3.5,0.5c4.6,0.7,8.3,4.2,9,8.9l0.8,4.5c0.3,1.9,1.6,3.4,3.3,4.2
		l2.4,1c3.2,1.4,5.6,4.3,6.3,7.7l2.2,10.6c0.5,2.3,2.3,4,4.6,4.4l3.8,0.6l-20.4-44.3C237.9,364.1,235.5,362.4,232.7,362.2z"/>
	<path class="st1" d="M216.7,474.4c-1.5,4.7-6.1,7.6-10.9,6.8c-1.6-0.2-3.1,0.3-4.2,1.5l-3.1,3.3c-1.6,1.7-3.8,2.8-6.1,3.1l-4.6,0.5
		l10,37.7c5.8,1.8,12.2,3.4,19.1,4.9c5.2,1.1,10.5-0.1,14.7-3.5c2.3-1.9,4.1-4.2,5.2-6.9l-19-50.4L216.7,474.4z"/>
	<path class="st1" d="M206.5,384l14.9-21.5c2.7-3.9,7.1-5.9,11.7-5.5c4.7,0.4,8.6,3.2,10.6,7.5l29.5,64l19.7-31.1
		c2.4-3.7,6.5-5.9,10.8-5.8c4.4,0.1,8.4,2.4,10.5,6.3l5.9,10.2c5-9.5,14.8-15.6,25.9-15.6c10.3,0,19.7,5.3,24.9,13.9l20.2-34.8
		c2.5-4.3,7-7.1,12-7.4c5-0.2,9.8,2,12.7,6l9.8,13.3c29.5-7.9,47.1-18.6,47.1-29.3c0-20.1-63.2-41.6-157.4-41.6S158,334.2,158,354.3
		C158,365.2,176.2,376.2,206.5,384z M367,390l16.8-28.9c0.7-1.2,2.3-1.6,3.5-0.9c1.2,0.7,1.7,2.3,0.9,3.5l-16.8,28.9
		c-0.5,0.8-1.3,1.3-2.2,1.3c-0.4,0-0.9-0.1-1.3-0.3C366.7,392.8,366.3,391.2,367,390z M355.6,385.1l3.9-10.9c0.5-1.3,2-2,3.3-1.6
		c1.3,0.5,2,2,1.6,3.3l-3.9,10.9c-0.4,1.1-1.4,1.7-2.4,1.7c-0.3,0-0.6-0.1-0.9-0.2C355.8,388,355.1,386.5,355.6,385.1z M343.4,355.8
		c0-1.4,1.2-2.6,2.6-2.6s2.6,1.2,2.6,2.6v27.6c0,1.4-1.2,2.6-2.6,2.6s-2.6-1.2-2.6-2.6V355.8z M329.1,372.7c1.3-0.5,2.8,0.2,3.3,1.6
		l3.9,10.9c0.5,1.3-0.2,2.8-1.6,3.3c-0.3,0.1-0.6,0.2-0.9,0.2c-1.1,0-2-0.7-2.4-1.7l-3.9-10.9C327.1,374.7,327.8,373.2,329.1,372.7z
		 M304.7,360.1c1.2-0.7,2.8-0.3,3.5,0.9L325,390c0.7,1.2,0.3,2.8-0.9,3.5c-0.4,0.2-0.9,0.3-1.3,0.3c-0.9,0-1.8-0.5-2.2-1.3
		l-16.8-28.9C303,362.4,303.4,360.9,304.7,360.1z"/>
	<path class="st1" d="M403.4,369.5c-3.3,0.2-6.2,1.9-7.8,4.8l-8.2,14.1c3.9,0.6,6.8,2.2,8.9,4.7c3.1-2.5,6.8-4.4,10.9-5.2
		c4.6-0.9,8.9-1.9,13.1-2.9l-8.6-11.7C409.7,370.7,406.7,369.3,403.4,369.5z"/>
	<path class="st1" d="M309.8,400.5c-1.3-2.2-3.6-3.6-6.2-3.7c-2.6-0.1-5,1.2-6.3,3.4l-6.5,10.3c3.3,0.2,6.4,1.7,8.5,4.4
		c1.9,2.4,5.4,3.2,8.1,1.8l0.7-0.3c1.9-0.9,4-1.4,6.1-1.2l4.1,0.3l-0.1-0.1c0,0,0,0,0,0L309.8,400.5z"/>
	<path class="st1" d="M465.5,464.1c-2.2,1.7-4.9,2.5-7.6,2.5c-2,0-4-0.5-5.8-1.4l-1.6-0.8c-2-1-4.3-1.1-6.3-0.3
		c-3.2,1.3-6.8,1.3-10-0.1c-3.2-1.4-5.6-4.1-6.8-7.4l-1.6-3.8L394.1,522c1.1,2.6,2.8,5,5.1,6.8c4.1,3.3,9.5,4.6,14.7,3.5
		c36.9-8,58.9-20.1,58.9-32.2v-37.5l-3.2-1.6L465.5,464.1z"/>
	<path class="st1" d="M436.2,459.3c1.9,0.8,4,0.9,5.9,0.1c3.5-1.5,7.4-1.3,10.7,0.5l1.6,0.8c2.5,1.3,5.6,1.1,7.9-0.7l2.1-1.6
		l-2.4-1.2c-2.5-1.3-4.5-3.4-5.5-6l-7-16.5c-0.5-1.2-1.5-2-2.7-2.2c-1.2-0.3-2.4,0.1-3.4,0.9l-12.3,11.1c-0.9,0.8-1.6,1.7-2.3,2.6
		l3.3,7.7C432.9,456.9,434.3,458.5,436.2,459.3z"/>
	<path class="st1" d="M384.6,393.3l-35.4,61.1c13.3,0.8,26.2,2,38.3,3.7v-46.2c0-5.6,1.9-10.8,5.2-14.9
		C391.5,395.1,389.3,393.5,384.6,393.3z"/>
	<path class="st1" d="M408.2,393c-9,1.8-15.5,9.7-15.5,18.8v48.5c0.1,0.3,0.1,0.7,0.1,1c0,0.1-0.1,0.1-0.1,0.2v51.1l29.4-64.3
		c1.4-3,3.3-5.6,5.7-7.7l12.3-11.1c2.1-1.9,5.1-2.7,7.9-2.1c2.8,0.6,5.2,2.6,6.3,5.3l7,16.5c0.6,1.5,1.7,2.7,3.1,3.4l8.3,4.3v-90.4
		C463.2,377.3,440.8,386.6,408.2,393z"/>
	<path class="st1" d="M222.6,393c-5.5-1.1-10.7-2.2-15.6-3.5c0,0,0,0-0.1,0c-24.2-6.1-41.1-14.1-49-23.1v48.8
		c1.2-0.4,2.5-0.6,3.8-0.5c3.8,0.3,6.8,2.9,7.8,6.5l12.2,46.2l13.4-16.3c2.9-3.5,7.3-5.2,11.8-4.4c4.5,0.7,8.1,3.7,9.7,8l21.2,56.3
		v-99.2C238.1,402.7,231.6,394.7,222.6,393z"/>
	<path class="st1" d="M254.8,415.4c-4.4-0.7-7.9-4.1-8.8-8.5l-2.2-10.6c-0.4-1.8-1.6-3.3-3.3-4l-2.4-1c-3.3-1.5-5.7-4.5-6.3-8.1
		l-0.8-4.5c-0.4-2.4-2.3-4.3-4.7-4.6l-6.1-0.9l-8.5,12.2c3.8,0.9,7.7,1.7,11.8,2.5c11.4,2.2,19.7,12.3,19.7,23.9v46.2
		c11.5-1.6,23.7-2.8,36.2-3.6L262,416.6L254.8,415.4z"/>
	<path class="st1" d="M346,397.7c-10.3,0-19.3,6.4-22.7,16l21.6,37.7l23-39.7C363.9,403.2,355.5,397.7,346,397.7z"/>
	<path class="st1" d="M313.8,420.2c-1.2-0.1-2.4,0.2-3.4,0.7l-0.7,0.3c-1.7,0.8-3.5,1.2-5.2,1.2c-3.5,0-6.9-1.5-9.2-4.4
		c-1.4-1.7-3.5-2.6-5.7-2.4l-2.2,0.2l-11.6,18.3l9.2,20c10-0.5,20.2-0.8,30.4-0.8c8.4,0,16.7,0.2,24.9,0.6l-19-33.1L313.8,420.2z"/>
</g>
</svg>
