<?xml version="1.0" encoding="utf-8"?>
<!-- Generator: Adobe Illustrator 28.0.0, SVG Export Plug-In . SVG Version: 6.00 Build 0)  -->
<svg version="1.1" id="Layer_2" xmlns="http://www.w3.org/2000/svg" xmlns:xlink="http://www.w3.org/1999/xlink" x="0px" y="0px"
	 viewBox="0 0 621 621" style="enable-background:new 0 0 621 621;" xml:space="preserve">
<style type="text/css">
	.st0{clip-path:url(#SVGID_00000142136984882029991110000002364032788823782534_);}
	.st1{fill:#818181;}
	.st2{clip-path:url(#SVGID_00000116931135631971420450000016870987375382074021_);}
</style>
<g>
	<defs>
		<path id="SVGID_1_" d="M590,310.5C590,464.9,464.9,590,310.5,590S31,464.9,31,310.5c0-110,63.6-205.2,156-250.8
			c3.2-1.6,6.5-3.1,9.7-4.6c5.5-2.5,11.1-4.7,16.8-6.8c30.2-11.2,62.9-17.3,97-17.3c108.4,0,202.6,61.5,248.7,151.8
			c2,3.9,19.8,49.8,20.9,53.5C586.5,260,590,284.8,590,310.5z"/>
	</defs>
	<clipPath id="SVGID_00000121244758927988704440000012973533563156152251_">
		<use xlink:href="#SVGID_1_"  style="overflow:visible;"/>
	</clipPath>
	<g style="clip-path:url(#SVGID_00000121244758927988704440000012973533563156152251_);">
		<path class="st1" d="M369.2,400.2c-7.5,1.1-13.3,4.7-18.2,11.1c4,25.9,9.3,51.6,16,77.1c8.6-7.7,19-12.4,31.2-13.9
			C385.5,451.2,375.8,426.5,369.2,400.2z"/>
		<path class="st1" d="M465.5,418.4c-1.8-2.3-3.6-4.7-5.3-7c-13.8-18.1-27.4-35.9-41.5-51.7c-17.4,7-30.2,18.6-39.1,35.3
			c6.5,26.2,16.1,50.9,28.7,74.1C424.5,446,443.4,429.3,465.5,418.4z"/>
		<path class="st1" d="M410.5,350.9c-12.9-13.5-26.4-25.1-41-33.6c0.5,21.5,2.7,42.1,6.6,62C384.9,366.8,396.4,357.3,410.5,350.9z"
			/>
		<path class="st1" d="M288.3,305.7c-5.3,1.5-10.6,3.3-15.6,5.5c-0.2,27.2-3.1,53.2-8.5,77.9c6.6,1.1,12.5,3.8,17.6,8
			C285.8,367,288,336.5,288.3,305.7z"/>
		<path class="st1" d="M254.7,379.2c3.9-19.9,6.1-40.5,6.6-62c-14.6,8.5-28,20.1-41,33.6C234.4,357.3,245.9,366.8,254.7,379.2z"/>
		<path class="st1" d="M165.4,418.4c22.1,10.9,40.9,27.6,57.2,50.7c12.6-23.2,22.2-47.9,28.7-74.1c-8.8-16.8-21.7-28.4-39.1-35.3
			c-14.1,15.8-27.7,33.6-41.5,51.7C168.9,413.8,167.2,416.1,165.4,418.4z"/>
		<path class="st1" d="M102.4,491.6c22.8,17.8,39.1,40.3,48.4,67.1c26.7-23.9,48.5-50.1,65.6-78.7c-16.3-24.6-35.4-41.8-58-52.5
			C141.2,449.7,123,472.1,102.4,491.6z"/>
		<path class="st1" d="M568.2,370.6h-26.9l22.1,20.1C564.7,383.9,566.3,377.2,568.2,370.6z"/>
		<path class="st1" d="M321,621.1c21-15.6,45.1-23.1,71.8-22.6c-13-30.7-23.9-61.7-32.8-93.2c-15.7-0.6-28.5,3.7-39,13.2
			C321,518.5,321,621.1,321,621.1z"/>
		<path class="st1" d="M469.1,404.6c28.4,37.3,57.4,75.3,93.9,101.3c-5.7-37.2-6.4-71-1.9-102.1l-36.7-33.2h-81.8
			C451.5,381.6,460.3,393,469.1,404.6z"/>
		<path class="st1" d="M321,504.2c10.2-6.8,22.2-10.2,35.8-10.2c-6.9-25.8-12.4-51.9-16.5-78.2c-7.5,0.4-13.8,2.8-19.3,7.3
			C321,423.1,321,504.2,321,504.2z"/>
		<path class="st1" d="M321,302.2v107.3c5.3-2.8,11.2-4.5,17.6-5c-4.7-33.4-7.2-67.2-7.4-101.3C327.9,302.8,324.5,302.4,321,302.2z"
			/>
		<path class="st1" d="M260.3,500.9c-8.6-9.8-19.7-14.9-33.8-15.5c-17,28.6-38.6,54.9-64.8,78.8c24.9,3.9,46.9,14.1,65.6,30.6
			C240.4,564,251.4,532.6,260.3,500.9z"/>
		<path class="st1" d="M279.8,411.3c-4.8-6.4-10.7-10-18.2-11.1c-6.7,26.3-16.4,51-29,74.4c12.2,1.5,22.6,6.2,31.2,13.9
			C270.6,463,275.9,437.3,279.8,411.3z"/>
		<path class="st1" d="M238,598.5c26.7-0.5,50.8,7,71.8,22.6V518.5c-10.4-9.5-23.2-13.8-39-13.2C261.9,536.7,251,567.8,238,598.5z"
			/>
		<path class="st1" d="M349.1,397.2c5.1-4.2,10.9-6.8,17.6-8c-5.4-24.7-8.3-50.7-8.5-77.9c-5-2.3-10.3-4.1-15.6-5.5
			C342.8,336.5,345,367,349.1,397.2z"/>
		<path class="st1" d="M408.4,605.7c8.5,19.1,17.7,38,27.8,56.7h152.2c1.4-6.2,2.2-12.3,2.6-18.4c-42.6-20.2-79.4-43.5-110.4-69.7
			C452.6,576.6,428.4,587.1,408.4,605.7z"/>
		<path class="st1" d="M292.2,404.6c6.4,0.5,12.3,2.2,17.6,5V302.2c-3.5,0.2-6.9,0.5-10.2,1.1C299.4,337.4,296.9,371.2,292.2,404.6z
			"/>
		<path class="st1" d="M586,673.6H442.3c8.4,15.1,17.4,30.2,26.9,45.1h119.9C584.2,704.6,583.1,689.5,586,673.6z"/>
		<path class="st1" d="M274,494c13.5,0.1,25.5,3.5,35.8,10.2v-81.2c-5.4-4.5-11.8-6.9-19.3-7.3C286.4,442.1,280.9,468.2,274,494z"/>
		<path class="st1" d="M174.9,718.7h134.9v-45.1H201.4C193.1,688.8,184.2,703.8,174.9,718.7z"/>
		<path class="st1" d="M232.9,609.9c-7.8,17.6-16.3,35.1-25.5,52.5h102.4v-26.8C287.7,616.5,262.4,608.1,232.9,609.9z"/>
		<path class="st1" d="M586.7,555.9c7.8,26.3,15.7,53.3,15.7,81c17.8,8.2,36.7,15.9,56.5,23.1V550.2c-30.3-0.9-56.6-8.8-79.9-21.3
			C581.4,537.9,584.1,547,586.7,555.9z"/>
		<path class="st1" d="M565.5,520.9c-10.1-6.5-19.6-13.7-28.6-21.6c-23.1,17.5-39.2,40.2-47.7,67.4c28.8,24.2,62.8,45.8,101.9,64.8
			c-0.9-24-7.9-47.7-15.2-72.4C572.2,546.6,568.5,533.8,565.5,520.9z"/>
		<path class="st1" d="M579.8,370.6c-2.8,9.4-5.1,19-6.7,28.9l85.9,77.8V370.6H579.8z"/>
		<path class="st1" d="M575.7,514.3c23.9,14.4,51.1,23.7,83.2,24.6v-46.4L571.3,413C567.7,443.8,569.2,477.3,575.7,514.3z"/>
		<path class="st1" d="M601.1,718.7h57.8v-45.1h-61.5C594.2,689.9,595.4,704.7,601.1,718.7z"/>
		<path class="st1" d="M600,662.4h33.5c-10.9-4.3-21.4-8.8-31.6-13.4C601.5,653.4,600.9,657.9,600,662.4z"/>
		<path class="st1" d="M321,673.6v45.1H456c-9.3-14.9-18.2-29.9-26.5-45.1H321z"/>
		<path class="st1" d="M51,370.6h-79.1v106.6l85.9-77.8C56.1,389.6,53.8,380,51,370.6z"/>
		<path class="st1" d="M67.8,505.9c36.5-26,65.5-64,93.9-101.3c8.8-11.6,17.6-23.1,26.4-34h-81.8l-36.7,33.2
			C74.2,435,73.6,468.8,67.8,505.9z"/>
		<path class="st1" d="M89.6,370.6H62.7c1.9,6.6,3.4,13.3,4.8,20.1L89.6,370.6z"/>
		<path class="st1" d="M528.5,491.6c-20.7-19.5-38.9-41.9-56-64.1c-22.6,10.7-41.7,27.9-58,52.5c17,28.6,38.9,54.8,65.6,78.7
			C489.4,531.9,505.6,509.4,528.5,491.6z"/>
		<path class="st1" d="M404.3,485.4c-14.2,0.5-25.2,5.7-33.8,15.5c8.9,31.7,19.9,63,33.1,93.9c18.7-16.4,40.7-26.7,65.6-30.6
			C442.9,540.3,421.3,514,404.3,485.4z"/>
		<path class="st1" d="M397.9,609.9c-29.5-1.8-54.8,6.6-76.9,25.7v26.8h102.4C414.3,645,405.8,627.5,397.9,609.9z"/>
		<path class="st1" d="M30.9,662.4c-0.9-4.5-1.5-8.9-1.9-13.4c-10.2,4.6-20.8,9.1-31.6,13.4H30.9z"/>
		<path class="st1" d="M93.9,499.3c-9,7.9-18.6,15.2-28.6,21.6c-3,13-6.7,25.8-10.4,38.2c-7.3,24.7-14.3,48.5-15.2,72.4
			c39.1-19,73.1-40.6,101.9-64.8C133.1,539.5,117,516.8,93.9,499.3z"/>
		<path class="st1" d="M-28.1,673.6v45.1h57.8c5.8-14,7-28.8,3.7-45.1H-28.1z"/>
		<path class="st1" d="M59.6,413l-87.7,79.4v46.4c32.1-1,59.3-10.2,83.2-24.6C61.7,477.3,63.1,443.8,59.6,413z"/>
		<path class="st1" d="M194.6,662.4c10.1-18.7,19.4-37.6,27.8-56.7c-20-18.5-44.2-29.1-72.2-31.4c-31,26.2-67.8,49.5-110.4,69.7
			c0.4,6.1,1.2,12.2,2.6,18.4L194.6,662.4L194.6,662.4z"/>
		<path class="st1" d="M44.9,673.6c2.8,15.9,1.8,31-3.1,45.1h119.9c9.5-14.9,18.5-29.9,26.9-45.1H44.9z"/>
		<path class="st1" d="M44.1,555.9c2.6-8.9,5.3-17.9,7.6-27c-23.3,12.5-49.5,20.4-79.9,21.3V660c19.8-7.2,38.7-14.9,56.5-23.1
			C28.4,609.2,36.3,582.2,44.1,555.9z"/>
	</g>
</g>
<g>
	<defs>
		<path id="SVGID_00000170273127468578192850000000878365724212453275_" d="M590,310.5C590,464.9,464.9,590,310.5,590
			S31,464.9,31,310.5c0-110,63.6-205.2,156-250.8c3.2-1.6,6.5-3.1,9.7-4.6c5.5-2.5,11.1-4.7,16.8-6.8c30.2-11.2,62.9-17.3,97-17.3
			c108.4,0,202.6,61.5,248.7,151.8c2,3.9,19.8,49.8,20.9,53.5C586.5,260,590,284.8,590,310.5z"/>
	</defs>
	<clipPath id="SVGID_00000125592292287779853460000010352334661236730512_">
		<use xlink:href="#SVGID_00000170273127468578192850000000878365724212453275_"  style="overflow:visible;"/>
	</clipPath>
	<g style="clip-path:url(#SVGID_00000125592292287779853460000010352334661236730512_);">
		<path class="st1" d="M271.3,235.3H283c-10.5-21.2-29.4-33.6-54.1-35.6l17.4,23.2C252.2,230.7,261.5,235.3,271.3,235.3z"/>
		<rect x="490" y="96.5" class="st1" width="5.1" height="9.7"/>
		<path class="st1" d="M335.5,164.9l28.8-36.1c-3.3-1.2-6.9-1.9-10.6-1.9h-74.7c-3.7,0-7.2,0.7-10.6,1.9l28.8,36.1L335.5,164.9
			L335.5,164.9z M328.1,157.4h-23.3c-1.9,0-3.5-1.6-3.5-3.5c0-1.9,1.6-3.5,3.5-3.5h23.3c1.9,0,3.5,1.6,3.5,3.5
			C331.6,155.9,330,157.4,328.1,157.4z M292.2,138.5c0-1.9,1.6-3.5,3.5-3.5h41.7c1.9,0,3.5,1.6,3.5,3.5c0,1.9-1.6,3.5-3.5,3.5h-41.7
			C293.7,141.9,292.2,140.4,292.2,138.5z"/>
		<rect x="137.7" y="96.5" class="st1" width="5.1" height="9.7"/>
		<polygon class="st1" points="146.3,124.1 175.7,124.1 175.7,113.2 146.3,113.2 134.3,113.2 104.9,113.2 104.9,124.1 134.3,124.1 
					"/>
		<rect x="137.7" y="131" class="st1" width="5.1" height="20"/>
		<path class="st1" d="M486.5,157.9H483v10.4c0,1.9-1.6,3.5-3.5,3.5h-62.7c-17.8,0-29.4-15.5-36-28.5c-2.4-4.7-5.9-8.5-10.2-11.3
			l-30.8,38.5c-0.7,0.8-1.7,1.3-2.7,1.3h-41.6c-1.1,0-2.1-0.5-2.7-1.3L262.2,132c-4.2,2.8-7.8,6.6-10.2,11.3
			c-6.6,13-18.2,28.5-36,28.5h-62.7c-1.9,0-3.5-1.6-3.5-3.5v-10.4h-3.5h-12h-3.5v48.6h19v-10.6c0-1.9,1.6-3.5,3.5-3.5h38.5h20h9.9
			c32.2,0,56.6,15.2,68.9,42.9h51.7c12.3-27.7,36.6-42.9,68.9-42.9h9.9h20h38.5c1.9,0,3.5,1.6,3.5,3.5v10.6h19v-48.6h-3.5H486.5z"/>
		<polygon class="st1" points="498.6,113.2 486.5,113.2 457.2,113.2 457.2,124.1 486.5,124.1 498.6,124.1 527.9,124.1 527.9,113.2 
					"/>
		<rect x="490" y="131" class="st1" width="5.1" height="20"/>
		<path class="st1" d="M386.5,222.9l17.4-23.2c-24.7,2-43.6,14.4-54.1,35.6h11.7C371.3,235.3,380.6,230.7,386.5,222.9z"/>
		<g>
			<path class="st1" d="M316.2,266.2c5.7,0,10.3-4.6,10.3-10.3c0-5.7-4.6-10.3-10.3-10.3s-10.3,4.6-10.3,10.3
				C306,261.6,310.6,266.2,316.2,266.2z M316.2,251.3c2.6,0,4.7,2.1,4.7,4.7s-2.1,4.7-4.7,4.7s-4.7-2.1-4.7-4.7
				C311.6,253.4,313.6,251.3,316.2,251.3z"/>
			<path class="st1" d="M296.3,273.9h16.5c1.5,0,2.6,0,3.4,0.1c0.8-0.1,1.9-0.1,3.4-0.1h16.5l5.8-35h-51.4L296.3,273.9z
				 M316.2,241.3c8.1,0,14.6,6.6,14.6,14.6s-6.6,14.6-14.6,14.6s-14.6-6.6-14.6-14.6S308.2,241.3,316.2,241.3z"/>
		</g>
	</g>
</g>
</svg>
