<?xml version="1.0" encoding="utf-8"?>
<!-- Generator: Adobe Illustrator 28.0.0, SVG Export Plug-In . SVG Version: 6.00 Build 0)  -->
<svg version="1.1" id="Layer_2" xmlns="http://www.w3.org/2000/svg" xmlns:xlink="http://www.w3.org/1999/xlink" x="0px" y="0px"
	 viewBox="0 0 621 621" style="enable-background:new 0 0 621 621;" xml:space="preserve">
<style type="text/css">
	.st0{fill:#818181;}
</style>
<g>
	<path class="st0" d="M276.4,231.8l11.6,1.6c-7.5-22.4-24.6-37.3-48.8-42.6l14.1,25.3C258.1,224.6,266.8,230.5,276.4,231.8z"/>
	
		<rect x="508.9" y="126.4" transform="matrix(0.135 -0.9908 0.9908 0.135 316.6584 620.5637)" class="st0" width="9.7" height="5.1"/>
	<path class="st0" d="M349.6,170.6l33.4-31.8c-3.1-1.6-6.5-2.8-10.2-3.3l-74-10.1c-3.7-0.5-7.3-0.3-10.7,0.5l23.7,39.6L349.6,170.6
		L349.6,170.6z M343.3,162.2l-23.1-3.1c-1.9-0.3-3.2-2-3-3.9s2-3.2,3.9-3l23.1,3.1c1.9,0.3,3.2,2,3,3.9
		C346.9,161.2,345.2,162.5,343.3,162.2z M310.2,138.6c0.3-1.9,2-3.2,3.9-3l41.3,5.6c1.9,0.3,3.2,2,3,3.9c-0.3,1.9-2,3.2-3.9,3
		l-41.3-5.6C311.3,142.3,309.9,140.5,310.2,138.6z"/>
	<rect x="159.9" y="78.8" transform="matrix(0.135 -0.9908 0.9908 0.135 61.8615 233.6125)" class="st0" width="9.7" height="5.1"/>
	<polygon class="st0" points="167.6,104.7 196.7,108.7 198.2,97.9 169.1,93.9 157.2,92.3 128.1,88.3 126.6,99.1 155.7,103.1 	"/>
	<rect x="149.4" y="118.1" transform="matrix(0.135 -0.9908 0.9908 0.135 18.3299 262.2769)" class="st0" width="20" height="5.1"/>
	<path class="st0" d="M500.1,184.1l-3.5-0.5l-1.4,10.3c-0.3,1.9-2,3.2-3.9,3l-62.2-8.5c-17.7-2.4-27-19.3-31.8-33.1
		c-1.7-5-4.7-9.2-8.5-12.6l-35.7,34c-0.8,0.7-1.8,1.1-2.9,0.9l-41.2-5.6c-1-0.1-2-0.8-2.5-1.7l-25.3-42.3c-4.6,2.2-8.6,5.5-11.6,9.9
		c-8.3,12-21.9,25.8-39.5,23.4l-62.2-8.5c-1.9-0.3-3.2-2-3-3.9l1.4-10.3l-3.5-0.5l-11.9-1.6l-3.5-0.5l-6.6,48.1l18.9,2.6l1.4-10.5
		c0.3-1.9,2-3.2,3.9-3l38.1,5.2l19.9,2.7l9.8,1.3c31.9,4.4,54,22.7,62.5,51.8l51.2,7c15.9-25.7,42.1-37.5,74-33.2l9.8,1.3l19.9,2.7
		l38.1,5.2c1.9,0.3,3.2,2,3,3.9l-1.4,10.5l18.9,2.6l6.6-48.1l-3.5-0.5L500.1,184.1z"/>
	<polygon class="st0" points="518.1,141.4 506.2,139.8 477.1,135.8 475.6,146.6 504.7,150.6 516.6,152.2 545.7,156.2 547.2,145.4 	
		"/>
	
		<rect x="498.4" y="165.6" transform="matrix(0.135 -0.9908 0.9908 0.135 273.1267 649.2281)" class="st0" width="20" height="5.1"/>
	<path class="st0" d="M392.3,235l20.4-20.6c-24.7-1.3-45.1,8.4-58.4,28l11.6,1.6C375.5,245.3,385.4,241.9,392.3,235z"/>
	<g>
		<path class="st0" d="M316.8,268.4c5.6,0.8,10.8-3.2,11.6-8.8c0.8-5.6-3.2-10.8-8.8-11.6c-5.6-0.8-10.8,3.2-11.6,8.8
			C307.2,262.5,311.2,267.7,316.8,268.4z M318.8,253.6c2.6,0.3,4.3,2.7,4,5.3s-2.7,4.3-5.3,4c-2.6-0.3-4.3-2.7-4-5.3
			C313.9,255.1,316.3,253.3,318.8,253.6z"/>
		<path class="st0" d="M296,273.4l16.3,2.2c1.5,0.2,2.5,0.3,3.4,0.5c0.8,0,1.9,0.2,3.4,0.4l16.3,2.2l10.5-33.9l-51-6.9L296,273.4z
			 M320.2,243.8c8,1.1,13.6,8.5,12.5,16.5c-1.1,8-8.5,13.6-16.5,12.5c-8-1.1-13.6-8.5-12.5-16.5
			C304.8,248.3,312.2,242.7,320.2,243.8z"/>
	</g>
</g>
<path class="st0" d="M426.9,319.7h-40.4V307h16.9v-16c0-1.8,1.5-3.3,3.3-3.3s3.3,1.5,3.3,3.3v16h16.9V319.7z M441,560.5V327.8h-68.7
	v116.5h26.3c2.2,0,4.1,1.8,4.1,4.1v112.2h-8.1V452.4h-79.7v108.1h-8.1V448.3c0-2.2,1.8-4.1,4.1-4.1h25.5v-75.9l-68.7-37.8v229.9
	h-8.1V400.4h-45.9v160.1h-8.1V396.4c0-2.2,1.8-4.1,4.1-4.1h33.7v-46.4h-63.1v214.6c-2.2,0-3.9,1.7-3.9,3.9c0,2.2,1.7,3.9,3.9,3.9
	H441c2.2,0,3.9-1.7,3.9-3.9C444.9,562.2,443.1,560.5,441,560.5L441,560.5z"/>
</svg>
