<?xml version="1.0" encoding="utf-8"?>
<!-- Generator: Adobe Illustrator 28.0.0, SVG Export Plug-In . SVG Version: 6.00 Build 0)  -->
<svg version="1.1" id="Layer_2" xmlns="http://www.w3.org/2000/svg" xmlns:xlink="http://www.w3.org/1999/xlink" x="0px" y="0px"
	 viewBox="0 0 621 621" style="enable-background:new 0 0 621 621;" xml:space="preserve">
<style type="text/css">
	.st0{fill:#818181;}
	.st1{fill-rule:evenodd;clip-rule:evenodd;fill:#818181;}
</style>
<g>
	<g>
		<g>
			<path class="st0" d="M265.4,415.6h11.7c-10.5-21.2-29.4-33.6-54.1-35.6l17.4,23.2C246.3,410.9,255.6,415.6,265.4,415.6z"/>
			<rect x="484.1" y="276.7" class="st0" width="5.1" height="9.7"/>
			<path class="st0" d="M329.6,345.1l28.8-36.1c-3.3-1.2-6.9-1.9-10.6-1.9h-74.7c-3.7,0-7.2,0.7-10.6,1.9l28.8,36.1L329.6,345.1
				L329.6,345.1z M322.2,337.6h-23.3c-1.9,0-3.5-1.6-3.5-3.5c0-1.9,1.6-3.5,3.5-3.5h23.3c1.9,0,3.5,1.6,3.5,3.5
				C325.7,336.1,324.1,337.6,322.2,337.6z M286.2,318.7c0-1.9,1.6-3.5,3.5-3.5h41.7c1.9,0,3.5,1.6,3.5,3.5s-1.6,3.5-3.5,3.5h-41.7
				C287.8,322.2,286.2,320.6,286.2,318.7z"/>
			<rect x="131.8" y="276.7" class="st0" width="5.1" height="9.7"/>
			<polygon class="st0" points="140.4,304.3 169.8,304.3 169.8,293.4 140.4,293.4 128.4,293.4 99,293.4 99,304.3 128.4,304.3 			"/>
			<rect x="131.8" y="311.3" class="st0" width="5.1" height="20"/>
			<path class="st0" d="M480.6,338.2h-3.5v10.4c0,1.9-1.6,3.5-3.5,3.5h-62.7c-17.8,0-29.4-15.5-36-28.5c-2.4-4.7-5.9-8.5-10.2-11.3
				L334,350.7c-0.7,0.8-1.7,1.3-2.7,1.3h-41.6c-1.1,0-2.1-0.5-2.7-1.3l-30.8-38.5c-4.2,2.8-7.8,6.6-10.2,11.3
				c-6.6,13-18.2,28.5-36,28.5h-62.7c-1.9,0-3.5-1.6-3.5-3.5v-10.4h-3.5h-12h-3.5v48.6h19v-10.6c0-1.9,1.6-3.5,3.5-3.5h38.5h20h9.9
				c32.2,0,56.6,15.2,68.9,42.9h51.7c12.3-27.7,36.6-42.9,68.9-42.9h9.9h20h38.5c1.9,0,3.5,1.6,3.5,3.5v10.6h19v-48.6h-3.5H480.6z"
				/>
			<polygon class="st0" points="492.6,293.4 480.6,293.4 451.2,293.4 451.2,304.3 480.6,304.3 492.6,304.3 522,304.3 522,293.4 			
				"/>
			<rect x="484.1" y="311.3" class="st0" width="5.1" height="20"/>
			<path class="st0" d="M380.6,403.1l17.4-23.2c-24.7,2-43.6,14.4-54.1,35.6h11.7C365.4,415.6,374.7,410.9,380.6,403.1z"/>
			<g>
				<path class="st0" d="M310.3,446.4c5.7,0,10.3-4.6,10.3-10.3c0-5.7-4.6-10.3-10.3-10.3c-5.7,0-10.3,4.6-10.3,10.3
					C300,441.8,304.6,446.4,310.3,446.4z M310.3,431.5c2.6,0,4.7,2.1,4.7,4.7c0,2.6-2.1,4.7-4.7,4.7s-4.7-2.1-4.7-4.7
					C305.6,433.6,307.7,431.5,310.3,431.5z"/>
				<path class="st0" d="M290.4,454.2h16.5c1.5,0,2.6,0,3.4,0.1c0.8-0.1,1.9-0.1,3.4-0.1h16.5l5.8-35h-51.4L290.4,454.2z
					 M310.3,421.5c8.1,0,14.6,6.6,14.6,14.6c0,8.1-6.6,14.6-14.6,14.6s-14.6-6.6-14.6-14.6C295.7,428.1,302.2,421.5,310.3,421.5z"/>
			</g>
		</g>
	</g>
</g>
<path class="st1" d="M357.8,201.5l-7,7c-0.3,0.4-0.8,0.6-1.4,0.6h-69.9c-0.5,0-1-0.2-1.4-0.6l-7-7c-0.4-0.3-0.6-0.8-0.6-1.4V131
	c0-0.5,0.2-1,0.6-1.4l7-7c0.3-0.4,0.8-0.6,1.4-0.6h69.9c0.5,0,1,0.2,1.4,0.6l7,7c0.4,0.3,0.6,0.8,0.6,1.4v69.2
	C358.4,200.7,358.2,201.2,357.8,201.5L357.8,201.5z M345.5,256.4c0,2.6-3.9,2.6-3.9,0v-15.8h-2.7v-15.4h9.2v15.4h-2.7L345.5,256.4z
	 M316.5,256.4c0,2.6-3.9,2.6-3.9,0v-15.8h-2.7v-15.4h9.2v15.4h-2.7L316.5,256.4z M287.5,256.4c0,2.6-3.9,2.6-3.9,0v-15.8h-2.7v-15.4
	h9.2v15.4h-2.7L287.5,256.4z M223.3,138.5c-2.6,0-2.6-3.9,0-3.9h15.8V132h15.4v9.2h-15.4v-2.7L223.3,138.5z M223.3,167.5
	c-2.6,0-2.6-3.9,0-3.9h15.8V161h15.4v9.2h-15.4v-2.7L223.3,167.5z M223.3,196.5c-2.6,0-2.6-3.9,0-3.9h15.8V190h15.4v9.2h-15.4v-2.7
	L223.3,196.5z M389.9,134.6h15.8c2.6,0,2.6,3.9,0,3.9h-15.8v2.7h-15.4V132h15.4V134.6z M389.9,163.6h15.8c2.6,0,2.6,3.9,0,3.9h-15.8
	v2.7h-15.4V161h15.4V163.6z M389.9,192.6h15.8c2.6,0,2.6,3.9,0,3.9h-15.8v2.7h-15.4V190h15.4V192.6z M341.6,90.5V74.7
	c0-2.6,3.9-2.6,3.9,0v15.8h2.7v15.4h-9.2V90.5L341.6,90.5z M312.6,90.5V74.7c0-2.6,3.9-2.6,3.9,0v15.8h2.7v15.4h-9.2V90.5
	L312.6,90.5z M283.6,90.5V74.7c0-2.6,3.9-2.6,3.9,0v15.8h2.7v15.4h-9.2V90.5L283.6,90.5z M303.9,150.1c-3.9-3.9-1.1-10.5,4.3-10.5
	c0.9,0,1.8,0.2,2.6,0.6l7-6.9v-7.4h-37.4l-5.8,5.8v67.6l5.8,5.8h4.9v-13c0-0.6,0.3-1.1,0.7-1.5l11.5-11.3
	c-3.5-5.4,0.3-12.6,6.8-12.6c7.2,0,10.9,8.8,5.8,13.9c-2.6,2.6-6.6,3.1-9.8,1.3L289.2,193v12.2h18.1V197c0-0.6,0.3-1.1,0.7-1.5
	l7.4-7.2c-2.2-4.1,0.7-9.1,5.4-9.1c5.5,0,8.2,6.6,4.3,10.5c-1.8,1.8-4.6,2.3-6.9,1.2l-7,6.9v7.4h37.4l5.8-5.8l0-67.6l-5.8-5.8h-4.9
	v13c0,0.6-0.3,1.1-0.7,1.5l-11.5,11.3c3.5,5.4-0.3,12.6-6.8,12.6c-7.2,0-10.9-8.8-5.8-13.9c2.6-2.6,6.6-3.1,9.8-1.3l11.1-10.9v-12.2
	h-18.1v8.2c0,0.6-0.3,1.1-0.7,1.5l-7.4,7.2c2.2,4.1-0.7,9.1-5.4,9.1C306.5,151.9,305,151.2,303.9,150.1L303.9,150.1z M355.4,221.5
	l15.4-15.4V125l-15.4-15.4h-81.7L258.3,125v81.1l15.4,15.4H355.4z"/>
</svg>
