<?xml version="1.0" encoding="utf-8"?>
<!-- Generator: Adobe Illustrator 24.0.0, SVG Export Plug-In . SVG Version: 6.00 Build 0)  -->
<svg version="1.1" id="Layer_1" xmlns="http://www.w3.org/2000/svg" xmlns:xlink="http://www.w3.org/1999/xlink" x="0px" y="0px"
	 viewBox="0 0 70 79.3" style="enable-background:new 0 0 70 79.3;" xml:space="preserve">
<style type="text/css">
	.st0{fill:#FFFFFF;}
	.st1{fill:#00C58E;}
</style>
<g>
	<path class="st0" d="M5,77.3c-1.4,0-3-1.1-3-3V5c0-1.9,1.6-3,3-3c0.5,0,1,0.1,1.5,0.4l60,34.6c0.9,0.5,1.5,1.5,1.5,2.6
		s-0.6,2.1-1.5,2.6l-60,34.6C6,77.2,5.5,77.3,5,77.3z"/>
	<path class="st1" d="M5,4c0.2,0,0.3,0,0.5,0.1l60,34.6c0.4,0.2,0.5,0.6,0.5,0.9s-0.1,0.6-0.5,0.9l-60,34.6
		c-0.2,0.1-0.3,0.1-0.5,0.1c-0.4,0-1-0.3-1-1V5C4,4.3,4.6,4,5,4 M5,0C2.4,0,0,2.1,0,5v69.3c0,2.9,2.4,5,5,5c0.8,0,1.7-0.2,2.5-0.7
		l60-34.6c3.3-1.9,3.3-6.7,0-8.7L7.5,0.7C6.7,0.2,5.8,0,5,0L5,0z"/>
</g>
</svg>
