<?xml version="1.0" encoding="utf-8"?>
<!-- Generator: Adobe Illustrator 24.0.0, SVG Export Plug-In . SVG Version: 6.00 Build 0)  -->
<svg version="1.1" id="Layer_1" xmlns="http://www.w3.org/2000/svg" xmlns:xlink="http://www.w3.org/1999/xlink" x="0px" y="0px"
	 viewBox="0 0 79.3 70" style="enable-background:new 0 0 79.3 70;" xml:space="preserve">
<style type="text/css">
	.st0{fill:#FFFFFF;}
	.st1{fill:#00C58E;}
	.st2{fill:#2F495E;}
</style>
<g>
	<path class="st0" d="M5,67c-1,0-1.6-0.7-1.7-1c-0.2-0.3-0.5-1.1,0-2L37.9,4c0.5-0.9,1.4-1,1.7-1s1.2,0.1,1.7,1L76,64
		c0.5,0.9,0.2,1.7,0,2c-0.2,0.3-0.7,1-1.7,1H5z"/>
	<path class="st1" d="M39.6,7l32.9,57H6.7L39.6,7 M39.6,0c-1.7,0-3.4,0.8-4.3,2.5l-34.6,60C-1.2,65.8,1.2,70,5,70h69.3
		c3.8,0,6.3-4.2,4.3-7.5L44,2.5C43,0.8,41.3,0,39.6,0L39.6,0z"/>
</g>
<g>
	<path class="st0" d="M27.3,67c-1,0-1.6-0.7-1.7-1c-0.2-0.3-0.5-1.1,0-2l23.5-40.7c0.5-0.9,1.4-1,1.7-1c0.3,0,1.2,0.1,1.7,1L76,64
		c0.5,0.9,0.2,1.7,0,2c-0.2,0.3-0.7,1-1.7,1H27.3z"/>
	<path class="st2" d="M50.8,26.3L72.6,64H29L50.8,26.3 M50.8,19.3c-1.7,0-3.4,0.8-4.3,2.5L23,62.5c-1.9,3.3,0.5,7.5,4.3,7.5h47
		c3.8,0,6.3-4.2,4.3-7.5L55.1,21.8C54.2,20.1,52.5,19.3,50.8,19.3L50.8,19.3z"/>
</g>
</svg>
