<?xml version="1.0" encoding="utf-8"?>
<!-- Generator: Adobe Illustrator 24.0.0, SVG Export Plug-In . SVG Version: 6.00 Build 0)  -->
<svg version="1.1" id="Layer_1" xmlns="http://www.w3.org/2000/svg" xmlns:xlink="http://www.w3.org/1999/xlink" x="0px" y="0px"
	 viewBox="0 0 160 160" style="enable-background:new 0 0 160 160;" xml:space="preserve">
<style type="text/css">
	.st0{fill:#FFFFFF;}
</style>
<path class="st0" d="M90.3,80c0,25-20.1,45.3-45,45.3S0.3,105,0.3,80s20.1-45.3,45-45.3S90.3,55,90.3,80 M139.6,80
	c0,23.5-10.1,42.6-22.5,42.6S94.6,103.5,94.6,80s10.1-42.6,22.5-42.6S139.6,56.4,139.6,80 M159.8,80c0,21.1-3.5,38.2-7.9,38.2
	S144,101.1,144,80s3.5-38.2,7.9-38.2S159.8,58.9,159.8,80"/>
</svg>
