<?xml version="1.0" encoding="utf-8"?>
<!-- Generator: Adobe Illustrator 24.0.0, SVG Export Plug-In . SVG Version: 6.00 Build 0)  -->
<svg version="1.1" id="Layer_1" xmlns="http://www.w3.org/2000/svg" xmlns:xlink="http://www.w3.org/1999/xlink" x="0px" y="0px"
	 viewBox="0 0 100 100" style="enable-background:new 0 0 100 100;" xml:space="preserve">
<style type="text/css">
	.st0{fill:#00C58E;}
	.st1{fill:#2F495E;}
	.st2{fill:#108775;}
</style>
<g id="Layer_2">
</g>
<g transform="translate(0 50)">
	<path class="st0" d="M57.1-17.1l-3.4,6L41.9-31.7l-36,63.4h24.4c0,3.3,2.7,6,5.9,6H5.9c-2.1,0-4.1-1.2-5.1-3c-1.1-1.9-1.1-4.2,0-6
		l36-63.4c1.1-1.9,3-3,5.1-3s4.1,1.2,5.1,3L57.1-17.1z"/>
	<path class="st1" d="M83.1,28.7L60.5-11l-3.4-6l-3.4,6L31.1,28.7c-1.1,1.9-1.1,4.2,0,6c1.1,1.9,3,3,5.1,3h41.7c2.1,0,4.1-1.1,5.1-3
		C84.1,32.8,84.1,30.5,83.1,28.7L83.1,28.7z M36.2,31.7L57.1-5l20.8,36.7H36.2L36.2,31.7z"/>
	<path class="st2" d="M99.2,34.7c-1.1,1.9-3,3-5.1,3H77.9c3.3,0,5.9-2.7,5.9-6h10.2L65.2-19.2L60.5-11l-3.4-6l2.9-5.1
		c1.1-1.9,3-3,5.1-3c2.1,0,4.1,1.2,5.1,3l28.9,50.9C100.3,30.5,100.3,32.8,99.2,34.7z"/>
</g>
</svg>
