<?xml version="1.0" encoding="utf-8"?>
<!-- Generator: Adobe Illustrator 27.9.2, SVG Export Plug-In . SVG Version: 6.00 Build 0)  -->
<svg version="1.1" id="Layer_2" xmlns="http://www.w3.org/2000/svg" xmlns:xlink="http://www.w3.org/1999/xlink" x="0px" y="0px"
	 viewBox="0 0 835 651.8" style="enable-background:new 0 0 835 651.8;" xml:space="preserve">
<style type="text/css">
	.st0{fill:#132335;}
	.st1{fill:#FFFFFF;}
	.st2{clip-path:url(#SVGID_00000024706611327726008500000012585151411884616891_);}
	.st3{fill:#A41B35;}
	.st4{display:none;}
	.st5{display:inline;}
	.st6{fill:#FFFFFF;stroke:#FFFFFF;stroke-width:2;stroke-miterlimit:10;}
	.st7{fill:#1CB7D8;}
</style>
<g id="BADGE">
	<g>
		<path class="st0" d="M723.1,341.3c0,171.5-139,310.5-310.5,310.5s-310.5-139-310.5-310.5c0-122.2,70.6-228,173.3-278.6
			c3.6-1.8,7.2-3.5,10.8-5.1c6.1-2.7,12.3-5.3,18.6-7.6c33.6-12.4,69.9-19.2,107.7-19.2c120.4,0,225.1,68.4,276.3,168.7
			c2.2,4.3,22,55.4,23.2,59.5C719.2,285.2,723.1,312.8,723.1,341.3z"/>
		<path class="st1" d="M702.1,341.3c0,159.9-129.6,289.5-289.5,289.5S123.1,501.2,123.1,341.3c0-114,65.9-212.6,161.6-259.8
			c3.3-1.6,6.7-3.2,10.1-4.7c5.7-2.5,11.5-4.9,17.4-7.1c31.3-11.6,65.1-17.9,100.5-17.9c112.2,0,209.8,63.7,257.6,157.3
			c2.1,4,20.6,51.6,21.6,55.4C698.5,289,702.1,314.8,702.1,341.3z"/>
		<path class="st0" d="M692.1,341.3c0,154.4-125.1,279.5-279.5,279.5S133.1,495.7,133.1,341.3c0-110,63.6-205.2,156-250.8
			c3.2-1.6,6.5-3.1,9.7-4.6c5.5-2.5,11.1-4.7,16.8-6.8c30.2-11.2,62.9-17.3,97-17.3c108.4,0,202.6,61.5,248.7,151.8
			c2,3.9,19.8,49.8,20.9,53.5C688.6,290.8,692.1,315.7,692.1,341.3z"/>
		<rect x="113.5" y="307.6" class="st0" width="599" height="107"/>
		<g>
			<defs>
				<path id="SVGID_1_" d="M702,341.6c0,159.9-129.6,289.5-289.5,289.5S123,501.4,123,341.6c0-114,65.9-212.6,161.6-259.8
					c3.3-1.6,6.7-3.2,10.1-4.7c5.7-2.5,11.5-4.9,17.4-7.1c31.3-11.6,65.1-17.9,100.5-17.9c112.2,0,209.8,63.7,257.6,157.3
					c2.1,4,20.6,51.6,21.6,55.4C698.4,289.2,702,315,702,341.6z"/>
			</defs>
			<clipPath id="SVGID_00000019637458992585278190000003744132460770409406_">
				<use xlink:href="#SVGID_1_"  style="overflow:visible;"/>
			</clipPath>
			<g style="clip-path:url(#SVGID_00000019637458992585278190000003744132460770409406_);">
				<rect x="115.6" y="316.8" class="st3" width="593.9" height="24.7"/>
				<g>
					<rect x="115.6" y="352.1" class="st3" width="593.9" height="24.7"/>
				</g>
			</g>
		</g>
	</g>
	<g id="title_00000146486212359405485810000011291278709445677717_">
		<g id="title">
			<path class="st0" d="M834.4,414.1c-12.6,0-22.8-7.3-23.7-16.6H25.3c-0.9,9.3-11.1,16.6-23.7,16.6c-0.6,0-0.6,14.9-1.7-0.1v122.3
				l0.6-0.4l59.1,30.6h716.8l58.5-30.2V414.1C834.8,414.1,834.6,414.1,834.4,414.1z"/>
			<g id="DRONE" class="st4">
				<g class="st5">
					<circle class="st3" cx="774.8" cy="429.3" r="17.5"/>
					<circle class="st0" cx="774.8" cy="429.3" r="12.9"/>
				</g>
				<g class="st5">
					<circle class="st3" cx="687.2" cy="517.2" r="17.5"/>
					<circle class="st0" cx="687.2" cy="517.2" r="12.9"/>
				</g>
				<g class="st5">
					<circle class="st3" cx="774.8" cy="517.2" r="17.5"/>
					<circle class="st0" cx="774.8" cy="517.2" r="12.9"/>
				</g>
				<g class="st5">
					<circle class="st3" cx="687.2" cy="429.3" r="17.5"/>
					<circle class="st0" cx="687.2" cy="429.3" r="12.9"/>
				</g>
				<g class="st5">
					<g>
						<g>
							<path class="st3" d="M776.6,521.8c-0.8,0-1.6-0.3-2.2-0.7l-39.2-28.1c-1.1-0.8-2.5-1.2-3.9-1.2c-1.4,0-2.7,0.4-3.9,1.2
								L688.1,521c-0.7,0.5-1.5,0.7-2.2,0.7c-1.4,0-2.8-0.8-3.5-2.2c-0.7-1.3-0.5-2.8,0.3-4l28.1-39.2c1.7-2.3,1.7-5.4,0-7.8
								l-28.1-39.2c-0.9-1.2-1-2.7-0.3-4c0.7-1.3,2-2.2,3.5-2.2c0.8,0,1.6,0.3,2.2,0.7l39.2,28.1c1.1,0.8,2.5,1.2,3.9,1.2
								c1.4,0,2.7-0.4,3.9-1.2l39.2-28.1c0.7-0.5,1.5-0.7,2.2-0.7c1.4,0,2.8,0.8,3.5,2.2c0.7,1.3,0.5,2.8-0.3,4l-28.1,39.2
								c-1.7,2.3-1.7,5.4,0,7.8l28.1,39.2c0.9,1.2,1,2.7,0.3,4C779.4,520.9,778,521.8,776.6,521.8z"/>
							<path class="st0" d="M776.6,424.3c2.1,0,3.8,2.5,2.3,4.5l-28.1,39.2c-1.9,2.7-1.9,6.2,0,8.9l28.1,39.2
								c1.5,2.1-0.2,4.5-2.3,4.5c-0.5,0-1.1-0.2-1.7-0.6l-39.2-28.1c-1.3-1-2.9-1.4-4.5-1.4c-1.6,0-3.1,0.5-4.5,1.4l-39.2,28.1
								c-0.5,0.4-1.1,0.6-1.7,0.6c-2.1,0-3.8-2.5-2.3-4.5l28.1-39.2c1.9-2.7,1.9-6.2,0-8.9l-28.1-39.2c-1.5-2.1,0.2-4.5,2.3-4.5
								c0.5,0,1.1,0.2,1.7,0.6l39.2,28.1c1.3,1,2.9,1.4,4.5,1.4c1.6,0,3.1-0.5,4.5-1.4l39.2-28.1
								C775.5,424.5,776.1,424.3,776.6,424.3 M776.6,422.3c-1,0-2,0.3-2.8,0.9l-39.2,28.1c-1,0.7-2.1,1.1-3.3,1.1s-2.3-0.4-3.3-1.1
								l-39.2-28.1c-0.9-0.6-1.8-0.9-2.8-0.9c-1.8,0-3.5,1.1-4.3,2.7c-0.8,1.6-0.7,3.5,0.4,5l28.1,39.2c1.4,2,1.4,4.6,0,6.6
								l-28.1,39.2c-1.1,1.5-1.2,3.4-0.4,5c0.8,1.6,2.5,2.7,4.3,2.7c1,0,2-0.3,2.8-0.9l39.2-28.1c1-0.7,2.1-1.1,3.3-1.1
								s2.3,0.4,3.3,1.1l39.2,28.1c0.9,0.6,1.8,0.9,2.8,0.9c1.8,0,3.5-1.1,4.3-2.7c0.8-1.6,0.7-3.5-0.4-5l-28.1-39.2
								c-1.4-2-1.4-4.6,0-6.6l28.1-39.2c1.1-1.5,1.2-3.4,0.4-5C780.1,423.4,778.4,422.3,776.6,422.3L776.6,422.3z"/>
						</g>
					</g>
				</g>
			</g>
			<g id="text-opteryx">
				<path class="st6" d="M106.2,425.3c6.4,0,11.8,0.8,16.3,2.3c4.5,1.5,8.1,3.9,10.9,7.2c2.8,3.3,4.8,7.5,6.1,12.7
					c1.3,5.2,1.9,11.5,1.9,19v26.8c0,7.5-0.6,13.9-1.9,19.1c-1.3,5.3-3.3,9.5-6.1,12.8c-2.8,3.3-6.5,5.6-10.9,7.1
					c-4.5,1.5-9.9,2.2-16.3,2.2H67.4c-6.4,0-11.8-0.7-16.2-2.2c-4.4-1.5-8.1-3.8-10.9-7.1c-2.8-3.3-4.9-7.5-6.2-12.8
					c-1.3-5.2-1.9-11.6-1.9-19.1v-26.8c0-7.5,0.6-13.8,1.9-19c1.3-5.2,3.4-9.4,6.2-12.7c2.8-3.3,6.4-5.7,10.9-7.2
					c4.4-1.5,9.8-2.3,16.2-2.3H106.2z M51.4,491.6c0,4.1,0.3,7.5,0.8,10.2c0.5,2.8,1.4,4.9,2.7,6.6c1.3,1.6,3,2.8,5.1,3.4
					c2.1,0.7,4.8,1,8.1,1h37.3c3.3,0,6-0.3,8.1-1c2.1-0.7,3.8-1.8,5.1-3.4c1.3-1.6,2.2-3.8,2.7-6.6c0.5-2.8,0.8-6.2,0.8-10.2v-23.4
					c0-4.1-0.3-7.5-0.8-10.2c-0.5-2.8-1.4-4.9-2.7-6.6c-1.3-1.6-3-2.8-5.1-3.4c-2.1-0.7-4.8-1-8.1-1H68.1c-3.3,0-6,0.3-8.1,1
					c-2.1,0.7-3.8,1.8-5.1,3.4c-1.3,1.6-2.2,3.8-2.7,6.6c-0.5,2.8-0.8,6.2-0.8,10.2V491.6z"/>
				<path class="st6" d="M228.3,425.3c9.6,0,16.5,2.7,20.7,8.1c4.2,5.4,6.3,13.4,6.3,24V469c0,10.6-2.1,18.6-6.3,24
					c-4.2,5.4-11.1,8.1-20.7,8.1h-52v30c0,2.3-0.9,3.4-2.8,3.4h-13.6c-1.9,0-2.9-1.1-2.9-3.4V430c0-3.1,1.3-4.7,3.8-4.7H228.3z
					 M176.2,480.6h48.1c4.3,0,7.3-1.1,9.1-3.4c1.8-2.3,2.6-5.8,2.6-10.5v-5.9c0-4.7-0.9-8.2-2.6-10.5c-1.8-2.3-4.8-3.4-9.1-3.4
					h-46.5c-1.1,0-1.6,0.6-1.6,1.9V480.6z"/>
				<path class="st6" d="M363.4,425.3c1.9,0,2.9,1.1,2.9,3.4V444c0,2.4-1,3.6-2.9,3.6h-39.5v83.5c0,2.3-0.9,3.4-2.8,3.4h-13.7
					c-1.8,0-2.8-1.1-2.8-3.4v-83.5h-39.5c-1.9,0-2.9-1.2-2.9-3.6v-15.3c0-2.3,1-3.4,2.9-3.4H363.4z"/>
				<path class="st6" d="M464.5,425.3c1.9,0,2.9,1.1,2.9,3.4v14.8c0,2.3-1,3.4-2.9,3.4h-54.9c-3.3,0-6,0.3-8.1,1
					c-2.1,0.7-3.9,1.8-5.2,3.4c-1.3,1.6-2.2,3.8-2.7,6.6c-0.5,2.8-0.8,6.2-0.8,10.2v1.6h71c1.8,0,2.8,1.1,2.8,3.4v12.3
					c0,2.3-0.9,3.4-2.8,3.4h-71v2.7c0,4.1,0.3,7.5,0.8,10.2c0.5,2.8,1.4,4.9,2.7,6.6c1.3,1.6,3,2.8,5.2,3.4c2.1,0.7,4.8,1,8.1,1
					h54.9c1.9,0,2.9,1.1,2.9,3.4v14.8c0,2.3-1,3.4-2.9,3.4h-55.3c-6.4,0-11.8-0.7-16.2-2.2c-4.4-1.5-8.1-3.8-10.9-7.1
					c-2.8-3.3-4.9-7.5-6.2-12.8c-1.3-5.2-1.9-11.6-1.9-19.1v-26.8c0-7.5,0.6-13.8,1.9-19c1.3-5.2,3.4-9.4,6.2-12.7
					c2.8-3.3,6.4-5.7,10.9-7.2c4.4-1.5,9.8-2.3,16.2-2.3H464.5z"/>
				<path class="st6" d="M553.1,425.3c9.6,0,16.5,2.7,20.7,8.1c4.2,5.4,6.3,13.4,6.3,24v8.9c0,8.9-1.5,16-4.4,21.2
					c-2.9,5.2-7.7,8.5-14.3,10l21.5,33.1c0.4,0.5,0.5,1.3,0.4,2.3c-0.2,1-0.8,1.6-2,1.6H565c-1.1,0-1.8-0.2-2.3-0.5
					c-0.4-0.3-0.8-0.8-1.3-1.6l-19.9-32.5H501v31.1c0,2.3-0.9,3.4-2.8,3.4h-13.6c-1.9,0-2.9-1.1-2.9-3.4V430c0-3.1,1.3-4.7,3.8-4.7
					H553.1z M501,481h48.1c4.3,0,7.3-1.1,9.1-3.4c1.8-2.3,2.6-5.8,2.6-10.5v-6.6c0-4.7-0.9-8.2-2.6-10.5c-1.8-2.3-4.8-3.4-9.1-3.4
					h-46.5c-1.1,0-1.6,0.6-1.6,1.9V481z"/>
				<path class="st6" d="M600.1,425.3c1.3,0,2.3,0.6,3,1.9l33.6,56.3l33.8-56.3c0.7-1.2,1.7-1.9,3-1.9H690c0.7,0,1.1,0.3,1.4,1
					c0.3,0.7,0.2,1.4-0.3,2.1L646,501.2v30c0,2.3-0.9,3.4-2.8,3.4h-13.6c-1.9,0-2.9-1.1-2.9-3.4v-30l-44.6-72.7
					c-0.4-0.7-0.5-1.4-0.3-2.1c0.2-0.7,0.7-1,1.4-1H600.1z"/>
				<path class="st6" d="M799.1,425.3c1.2,0,1.8,0.5,1.9,1.5c0.1,1-0.1,1.8-0.7,2.6l-38.6,48.5l40.3,52.6c0.6,0.7,0.8,1.6,0.7,2.6
					c-0.1,1-0.8,1.5-1.9,1.5h-17.2c-1,0-1.8-0.2-2.4-0.5c-0.6-0.3-1.1-0.9-1.6-1.7l-31-40.4l-31.2,40.4c-0.6,0.8-1.2,1.4-1.7,1.7
					c-0.5,0.3-1.4,0.5-2.5,0.5h-16.3c-1.1,0-1.7-0.5-1.8-1.5c-0.1-1,0.1-1.8,0.7-2.6l41.4-53.4l-37.3-47.7c-0.5-0.7-0.7-1.6-0.6-2.6
					c0.1-1,0.7-1.5,1.9-1.5h17.2c1,0,1.8,0.2,2.4,0.5c0.6,0.4,1.1,0.9,1.6,1.6l27.4,36.2l29-36.2c0.5-0.7,1-1.3,1.6-1.6
					c0.6-0.4,1.4-0.5,2.4-0.5H799.1z"/>
			</g>
		</g>
		<g id="sub">
			<polygon class="st0" points="649.5,565.6 180.5,565.6 140.5,632.6 694.5,632.6 			"/>
			<g>
				<path class="st1" d="M195.3,581.5H209c8.9,0,14.9,6.4,14.9,16.3c0,5.7-2,10.2-5.6,13c-2.5,1.9-5.8,2.9-9.8,2.9h-13.2V581.5z
					 M207.9,607c5.2,0,7.9-3.3,7.9-9.2c0-5.8-2.8-9.6-7.8-9.6h-4.8V607H207.9z"/>
				<path class="st1" d="M233.6,581.5H249c6.4,0,11.2,3.3,11.2,9.3c0,3.7-1.8,6.5-5.6,7.8v0.1c2.8,0.9,4.2,2.7,4.7,5.9
					c0.7,4.2,0.2,8.3,1.4,8.7v0.4H253c-0.9-0.5-0.7-4.3-1.2-7.5c-0.4-3-1.9-4.6-5.4-4.6h-4.8v12.1h-8V581.5z M247.6,595.8
					c3.1,0,4.8-1.5,4.8-3.9c0-2.3-1.5-4-4.6-4h-6.2v7.9H247.6z"/>
				<path class="st1" d="M269.1,597.7c0-9.6,6.2-16.8,15.9-16.8c9.8,0,15.9,7.2,15.9,16.8s-6.2,16.8-15.9,16.8
					C275.3,614.5,269.1,607.3,269.1,597.7z M292.8,597.7c0-5.8-2.6-10.3-7.8-10.3c-5.2,0-7.8,4.5-7.8,10.3s2.7,10.3,7.8,10.3
					C290.3,608,292.8,603.6,292.8,597.7z"/>
				<path class="st1" d="M310.7,581.5h8l9.5,16.2c0.5,0.9,2.2,4.1,2.2,4.1h0.1c0,0-0.1-3.9-0.1-5v-15.3h7.8v32.2h-8l-9.4-15.9
					c-0.5-0.9-2.3-4.3-2.3-4.3h-0.1c0,0,0.1,4.1,0.1,5.3v15h-7.8V581.5z"/>
				<path class="st1" d="M349.2,581.5h24.4v6.6h-16.4v5.8h14.1v6.2h-14.1v6.9h16.7v6.8h-24.7V581.5z"/>
				<path class="st1" d="M396.2,603.6h8c0.4,3.2,2.5,4.6,6.3,4.6c2.6,0,5.2-0.9,5.2-3.4c0-2.6-2.6-3.1-7-4.2
					c-5.6-1.3-11.5-3-11.5-9.8c0-6.9,5.6-9.9,12.8-9.9c7,0,12.4,3.2,12.7,9.9h-7.8c-0.3-2.5-2.2-3.9-5.2-3.9c-2.8,0-4.6,1.2-4.6,3
					c0,2.2,2.5,2.8,7.3,3.9c6,1.4,11.4,3.2,11.4,10.1c0,6.8-5.8,10.5-13.2,10.5C402,614.5,396.3,610.7,396.2,603.6z"/>
				<path class="st1" d="M440,601.8l-10.9-20.3h8.7l4.1,8.3c1.1,2.2,2.1,4.9,2.1,4.9h0.1c0,0,1.1-2.7,2.2-4.9l4.1-8.3h8.4L448,601.8
					v11.9h-8V601.8z"/>
				<path class="st1" d="M464.7,603.6h8c0.4,3.2,2.5,4.6,6.3,4.6c2.6,0,5.2-0.9,5.2-3.4c0-2.6-2.6-3.1-7-4.2
					c-5.6-1.3-11.5-3-11.5-9.8c0-6.9,5.6-9.9,12.8-9.9c7,0,12.4,3.2,12.7,9.9h-7.8c-0.3-2.5-2.2-3.9-5.2-3.9c-2.8,0-4.6,1.2-4.6,3
					c0,2.2,2.5,2.8,7.3,3.9c6,1.4,11.4,3.2,11.4,10.1c0,6.8-5.8,10.5-13.2,10.5C470.5,614.5,464.8,610.7,464.7,603.6z"/>
				<path class="st1" d="M508.8,588.3h-9.4v-6.8h26.8v6.8h-9.5v25.4h-8V588.3z"/>
				<path class="st1" d="M535.8,581.5h24.4v6.6h-16.4v5.8h14.1v6.2h-14.1v6.9h16.7v6.8h-24.7V581.5z"/>
				<path class="st1" d="M570.7,581.5h10.7l3.9,14.1c0.6,2,1.8,7.3,1.8,7.3h0.1c0,0,1.3-5.3,1.8-7.3l4-14.1h10.8v32.2h-7.3v-16.2
					c0-1.3,0.1-6.4,0.1-6.4h-0.1c0,0-1.1,4.8-1.5,6l-4.6,16.6h-6.6l-4.6-16.6c-0.4-1.2-1.5-6-1.5-6h-0.1c0,0,0.1,5.2,0.1,6.5v16.2
					h-7.2V581.5z"/>
				<path class="st1" d="M613.3,603.6h8c0.4,3.2,2.5,4.6,6.3,4.6c2.6,0,5.2-0.9,5.2-3.4c0-2.6-2.6-3.1-7-4.2
					c-5.6-1.3-11.5-3-11.5-9.8c0-6.9,5.6-9.9,12.8-9.9c7,0,12.4,3.2,12.7,9.9H632c-0.3-2.5-2.2-3.9-5.2-3.9c-2.8,0-4.6,1.2-4.6,3
					c0,2.2,2.5,2.8,7.3,3.9c6,1.4,11.4,3.2,11.4,10.1c0,6.8-5.8,10.5-13.2,10.5C619.1,614.5,613.5,610.7,613.3,603.6z"/>
			</g>
		</g>
	</g>
	<g id="bird">
		<g id="eye">
			<circle class="st3" cx="630.2" cy="208.1" r="8.5"/>
			<circle class="st0" cx="633.2" cy="206.1" r="5.5"/>
		</g>
		<rect x="336.5" y="272.6" class="st0" width="81" height="124"/>
		<g id="body">
			<path class="st7" d="M182.3,308.8l-0.8-2.4c-0.4-1.2-0.2-2.9,1.4-4.1c0.7-0.5,1.6-0.9,3.3-1.2c0.9-0.4,2.1-0.9,3.5-1.5
				c16.7-7.1,61-26,91.4-26c29.1,0,62.1,2.9,82.2,5.1c-3.3-0.8-6.7-1.5-9.9-2.1c-18.4-3.5-68.5-6.2-100.9-6.2
				c-10.3,0-17.8,0.3-21.1,0.8c-2.1,0.7-2.4,0.7-3,0.7h-2.9l-0.5-2.9c-0.3-1.9,0.6-3.3,2.9-4.2c0.5-0.2,1.1-0.4,1.9-0.5
				c10.9-3.4,55.8-18.4,56.2-18.6l0.9-0.3l60,11.2l22,6.2c-13.6-6.1-31.4-13.3-52.9-20.4c-52.9-17.6-105.6-21.8-106.2-21.8
				l-22.5-1.7l78-18.4l1,0.3c0.3,0.1,29.4,10.2,54.3,21.1c9.9,4.4,20.7,9.4,30.1,13.9c-12.8-9-31.7-21.2-57.2-35.6
				c-54.3-30.6-98.4-52.7-98.8-52.9l-0.2-0.1l-19.4-13.2l-0.1-0.1c-0.2-0.2-20.9-17.8-36.3-25.5c-16-8-22.1-12-22.4-12.2l-12.8-8.6
				l50.6,7.2l59.8,19.3l80.5,56.4l29,22.5l-45.4-46.1l-52.4-44.3l-33.6-61.1l39.4,23.9l0.2,0.2c0.3,0.2,27.6,22.7,62.5,63.4
				c9.4,11,16.7,19.5,22.4,26l-47.3-80.3L250.8,12l30.7,30.7L298.7,66L310,81.3l0.2,0.4c0.2,0.6,25,63,31.8,75.6
				c8,14.8,18.5,34,28.9,50.8c17.3,27.9,35.9,47.1,51.2,52.5c8.2,3,19,4.5,31.2,4.5c18.5,0,37.2-3.9,43.4-9c0.4-0.4,1-0.7,2-1.4
				c4.1-2.7,13.6-9,22.5-20.1c16.7-20.8,42.2-40,54.6-44.1c10.6-3.5,14.5-4.1,19.9-4.8c0.9-0.1,1.8-0.2,2.8-0.4c7.2-1,12.3-1,12.5-1
				h9l-6.6,6.1c0,0-5.3,5.1-5.9,13.7c-0.2,3.4,0.8,6.3,3.2,8.9c7.5,8.1,28.4,12.7,57.1,12.7c1.3,0,2.5,0,3.6,0l-23.7-22.2l58.8,24.1
				v8.7v-6.2l4,0.5c0.3,0,7,1,15.6,7.5c5.2,3.9,9.4,17.2,10.2,19.8l2.2,7.2l-6.9-3c-0.1-0.1-13.9-5.9-28.3-8.8
				c-4.1-0.8-9-1.9-14.1-3c-13.5-2.9-30.4-6.5-42.6-8c-8-0.9-16-1.7-22.4-2.3c-7.6-0.7-13-1.2-15.8-1.8c-17.4-3.4-27.9-9.4-31-17.8
				c-2.3-6.2,0-12.2,2.9-15.8c0.3-0.4,0.7-0.8,1-1.2c-9.1,2.5-24.2,10.2-42.6,32.6c-6.5,7.9-13.8,16.8-25.2,28.3
				c-0.6,0.6-1.2,1.2-1.8,1.8c-10.5,10.6-29.9,30.2-60.4,32.2c-2.3,0.1-5.6,0.2-10,0.2c-18.3,0-52.4-1.3-65.5-2.2
				c-1.8-0.1-3.5-0.2-5.1-0.4c-6.1-0.4-11-0.8-18-0.8c-7,0-15.7,0.4-27.4,1.1l-2.1,0.1c-29.4,2-118.6,7.9-134.9,11.1
				c-2,0.8-2.6,1-3.4,1H182.3z"/>
			<path class="st0" d="M257.9,24.1l21,21l17,23l11,15c0,0,25,63,32,76s18,33.3,29,51c15.6,25.2,35.2,47.6,53,54
				c9.3,3.3,20.9,4.7,32.3,4.7c19.5,0,38.7-4.1,45.7-9.7c1.7-1.4,13.9-8.2,25-22c16-20,41-39,53-43s15-4,22-5s12-1,12-1
				s-6.3,5.8-7,16c-1.5,22.5,42,25.3,63.8,25.3c7.3,0,12.2-0.3,12.2-0.3l-16-15l39,16v9.7l7,0.3v-5.8c0,0,6,0.8,14,6.8
				c4.5,3.4,9,18,9,18s-14-6-29-9s-40-9-57-11s-33-3-38-4c-36-7-30-23-26-28s8-8,8-8s-0.7-0.1-1.9-0.1c-6.2,0-26.5,2.8-53.1,35.1
				c-7,8.5-14,17-25,28c-10,10-29,31-60,33c-2.3,0.1-5.7,0.2-9.8,0.2c-18.9,0-52.9-1.4-65.2-2.2c-8.7-0.6-14.3-1.2-23.3-1.2
				c-6.6,0-15,0.3-27.7,1.2c-27.9,1.9-121.7,8.1-137.8,11.3c11.5-4.8,61.4-27.3,93.8-27.3c38,0,83,5,99,7s31,5,31,5s-31-11-57-16
				c-19.7-3.8-71-6.2-101.6-6.2c-10.3,0-18.3,0.3-21.9,0.9c10.6-3.3,56.5-18.6,56.5-18.6l59,11l57,16c0,0-30.3-18.4-86-37
				c-54-18-107-22-107-22l55-13c0,0,29,10,54,21s55,26,55,26v-2c0,0-24-21-79-52s-99-53-99-53l-19-13c0,0-21-18-37-26s-22-12-22-12
				l35,5l59,19l80,56l58,45l-1-4l-69-70l-52-44l-27-49l28,17c0,0,27,22,62,63s41,47,41,47v-3l-60-102L257.9,24.1 M230.4,267.7
				c-1.3,0.4-2.1,0.6-2.2,0.6c-0.1,0,0.2-0.1,0.7-0.3C229.3,267.9,229.8,267.8,230.4,267.7 M187.1,304.4c-1.4,0.6-2.2,0.9-2.4,0.9
				c-0.1,0,0-0.1,0.1-0.2C185.2,304.8,186,304.6,187.1,304.4 M243.8,0l7.4,26l14,49l0.2,0.9l0.5,0.8l27.2,46.2
				c-33.4-38.6-58.6-59.3-59.7-60.2l-0.4-0.3l-0.4-0.3l-28-17l-22.4-13.6l12.7,23l27,49l0.6,1.1l1,0.8l51.8,43.8l11.4,11.6
				l-70.6-49.4l-0.9-0.6l-1-0.3l-59-19l-0.6-0.2l-0.6-0.1l-35-5l-30.6-4.4L114,98.9c0.3,0.2,6.5,4.3,22.8,12.4
				c15,7.5,35.4,24.9,35.6,25.1l0.3,0.2l0.3,0.2l19,13l0.4,0.3l0.4,0.2c0.4,0.2,44.5,22.3,98.7,52.8c6.1,3.5,11.9,6.8,17.3,10
				c-21.1-8.6-41.3-15.6-41.5-15.7l-1.9-0.7l-2,0.5l-55,13l-44,10.4l45.1,3.4c0.5,0,52.8,4.2,105.3,21.7c3.1,1,6.2,2.1,9.1,3.1
				l-35.6-6.6l-1.8-0.3l-1.7,0.6c-0.5,0.2-44.8,14.9-56,18.5c-0.9,0.2-1.6,0.4-2.3,0.6c-5.7,2.1-5.3,6.7-5.1,8.1l1,5.8l5.9,0
				c1.1,0,1.8-0.2,3.8-0.8c1.9-0.3,7-0.7,20.3-0.7c0.1,0,0.3,0,0.4,0c-25.6,5.9-52.4,17.3-64.6,22.5c-1.2,0.5-2.3,1-3.1,1.3
				c-1.7,0.4-3.1,0.9-4.3,1.8c-3.1,2.3-3.4,5.8-2.6,8l1.6,4.8l5.1,0c1.4,0,2.5-0.4,4.4-1.1c11.2-2.1,56.3-5.8,134.1-10.9l2.1-0.1
				c11.7-0.8,20.3-1.1,27.2-1.1c6.9,0,11.7,0.3,17.7,0.8c1.6,0.1,3.3,0.2,5.1,0.4c13.2,0.9,47.3,2.2,65.7,2.2
				c4.4,0,7.9-0.1,10.2-0.2c31.9-2.1,51.9-22.3,62.7-33.2c0.6-0.6,1.2-1.2,1.8-1.8c11.5-11.5,18.9-20.6,25.5-28.5
				c12.8-15.6,23.9-23.7,32.2-28c-0.9,3.5-1,7.4,0.5,11.4c3.5,9.7,14.8,16.4,33.6,20c3,0.6,8.5,1.1,16.2,1.8
				c6.4,0.6,14.3,1.3,22.3,2.3c12.1,1.4,28.8,5,42.3,7.9c5.2,1.1,10,2.2,14.1,3c14.1,2.8,27.5,8.5,27.6,8.6l13.9,5.9l-4.4-14.4
				c-1.5-5-5.8-17.3-11.5-21.5c-9.2-6.9-16.5-8-17.3-8.2l-0.9-0.1v-1.8l-4.3-1.8l-39-16l-35.2-14.4l27.8,26l3.4,3.2
				c-24.7-0.5-42.9-4.8-49.3-11.5c-1.8-1.9-2.5-3.8-2.3-6.3c0.5-6.8,4.3-10.9,4.8-11.3l14-12.2l-18.8,0.1c-0.2,0-5.6,0-13,1.1
				c-1,0.1-1.9,0.3-2.7,0.4c-5.4,0.7-9.6,1.3-20.5,4.9c-12.9,4.3-39.2,24-56.3,45.3c-8.5,10.6-17.7,16.7-21.7,19.3
				c-1.1,0.7-1.7,1.1-2.3,1.6c-4.9,4-21.7,8.2-41.2,8.2c-11.7,0-22.1-1.5-30-4.3c-14.3-5.2-32.8-24.3-49.4-51.1
				c-10.4-16.8-20.8-35.9-28.8-50.6c-6.7-12.5-31.4-74.6-31.7-75.3l-0.3-0.8l-0.5-0.7l-11-15l-17-23l-0.3-0.4l-0.4-0.4l-21-21
				L243.8,0L243.8,0z"/>
		</g>
		<g id="chest">
			<path class="st1" d="M473.6,333.1c-8.1,0-16.2-0.7-24.4-2.1c-21-3.6-54.5-24.2-55.9-25c-1.7-1.1-2.4-3.2-1.6-5
				c0.7-1.5,2.1-2.4,3.7-2.4c0.4,0,0.7,0.1,1.1,0.2c0.4,0.1,37.9,10.9,62.1,12.3c2.1,0.1,4.2,0.2,6.3,0.2
				c41.8,0,70.2-25.1,85.4-38.6c3.4-3,6.2-5.4,8.3-6.9c19-13,42.7-19,74.7-19c10,0,20.9,0.6,32.4,1.9c24.4,2.6,54.7,13.8,56,14.2
				c1.8,0.7,2.9,2.6,2.5,4.5c-0.4,1.9-2,3.2-3.9,3.2c0,0-0.1,0-0.1,0c-0.4,0-43.3-1.2-68.4-1.5l-0.7,0c-17.9,0-47,6.9-62.7,18
				c-1.3,0.9-2.6,1.8-3.9,2.8C561.8,306,523.7,333.1,473.6,333.1z"/>
			<path class="st0" d="M633.4,250.7c9.6,0,20.2,0.6,32,1.8c24.2,2.6,55,14,55,14s-43.1-1.2-68.5-1.5c-0.2,0-0.5,0-0.7,0
				c-17.4,0-47.8,6.5-65,18.7c-22.9,16.2-60.9,45.3-112.6,45.3c-7.6,0-15.5-0.6-23.7-2c-20.5-3.5-54.5-24.5-54.5-24.5s38,11,63,12.5
				c2.2,0.1,4.4,0.2,6.5,0.2c52.7,0,85-38.7,96-46.2C575.9,258.8,597.4,250.7,633.4,250.7 M633.4,242.7c-32.4,0-57.6,6.5-77,19.7
				c-2.4,1.6-5.2,4.1-8.7,7.2c-14.9,13.1-42.5,37.6-82.8,37.6c-2,0-4-0.1-6.1-0.2c-23.8-1.4-60.9-12.1-61.2-12.2
				c-0.7-0.2-1.5-0.3-2.2-0.3c-3.1,0-6,1.8-7.3,4.8c-1.6,3.7-0.3,7.9,3.1,10.1c1.4,0.9,35.6,21.9,57.4,25.6c8.3,1.4,16.8,2.1,25,2.1
				c51.4,0,90.1-27.6,113.3-44c1.3-1,2.6-1.9,3.9-2.8c15.1-10.6,43.1-17.2,60.4-17.2c0.2,0,0.4,0,0.6,0c25,0.3,67.9,1.5,68.4,1.5
				c0.1,0,0.2,0,0.2,0c3.8,0,7.1-2.7,7.9-6.5c0.7-3.8-1.4-7.7-5.1-9c-1.3-0.5-32-11.8-56.9-14.5
				C654.6,243.3,643.5,242.7,633.4,242.7L633.4,242.7z"/>
		</g>
		<g>
			<path class="st1" d="M350.2,412c-2.9,0-7.3,0-7.9-3.9c-0.1-0.6-0.3-3.7,3.5-4.8c29.1-8.7,44.4-23.9,52.2-35.2
				c4.7-6.8,7.3-13,8.6-17.2l-42.6,5.9l6.8-35.2l3.7,0.4c0.2,0,20.1,2.4,40,5.1c41.9,5.6,42.6,6.6,43.9,8.6l1,1.5l-0.5,1.9
				c-7.7,26.4-26.5,47.1-54.5,59.9C382.1,409.3,359.9,412,350.2,412C350.2,412,350.2,412,350.2,412z"/>
			<path class="st0" d="M374,326.1c0,0,81.6,9.9,81,12c-17.4,59.8-87.3,69.9-104.8,69.9c-3.6,0-4.9-0.4-3.2-0.9
				c58.9-17.7,65-61,65-61l-43,6L374,326.1 M367.6,317.2l-1.4,7.3l-5,26l-2.1,11l11.1-1.5l30.3-4.2c-1.4,3.1-3.3,6.7-6,10.4
				c-10.8,15.4-27.5,26.6-49.8,33.3c-5.1,1.5-6.8,5.7-6.3,9.2c0.2,1.5,1.4,6.3,7.9,7.1c1.1,0.1,2.4,0.2,4,0.2
				c9.9,0,32.9-2.8,55.7-13.3c29.1-13.3,48.7-34.9,56.7-62.4c0.7-2.3,0.3-4.7-1-6.7c-2.3-3.4-5.1-4.2-18.7-6.3
				c-6.8-1.1-16.3-2.4-28-4c-19.9-2.7-39.8-5.1-40-5.1L367.6,317.2L367.6,317.2z"/>
		</g>
		<g>
			<path class="st1" d="M309.8,418.1c-1.7,0-3.3-1-3.9-2.6c-1.1-2.8-1.7-4.2,25.3-30.3l1.2-1.1h29.4l-9.3,7.2
				c-3.2,2.5-31.7,24.3-41.5,26.7C310.6,418,310.2,418.1,309.8,418.1z"/>
			<path class="st0" d="M350,388.1c0,0-30.8,23.7-40,26c-0.1,0-0.1,0-0.2,0c-2.8,0,24.2-26,24.2-26H350 M373.5,380.1H350h-16h-3.2
				l-2.3,2.2c-0.1,0.1-6.4,6.2-12.6,12.4c-3.7,3.7-6.6,6.8-8.7,9.1c-3.5,3.9-7.1,7.9-5,13.1c1.3,3.1,4.2,5.1,7.6,5.1
				c0.7,0,1.4-0.1,2.1-0.3c10-2.5,35.4-21.6,42.9-27.4L373.5,380.1L373.5,380.1z"/>
		</g>
		<g>
			<path class="st1" d="M265.4,354.9l1.3,0.2c0.2,0,22,4,46.4,4.9c0.2,0,0.4,0,0.6,0c17.1,0,25.5-31.5,27.3-43.6l8,0.4l0.4,9.5
				l5.4-10.7l2.9,0.5c4.7,0.8,9.3,1.9,9.3,5.9c0,39.2-31.1,56.8-39.4,58c-0.5,0.1-1.1,0.1-1.9,0.1c-10.4,0-54.2-7.8-61-9l-64.5,15.3
				L265.4,354.9z"/>
			<path class="st0" d="M345,317.1l1,25l11-22c0,0,6,1,6,2c0,37.1-29,53-36,54c-0.3,0-0.8,0.1-1.3,0.1c-10.8,0-61.1-9.1-61.1-9.1
				l-29.6,7l31-15c0,0,22,4,47,5c0.3,0,0.5,0,0.8,0C338.1,364.1,345,317.1,345,317.1 M352.5,311.2l-2.6,5.3l0,0.1l-12.6-0.7l-0.1,0
				c-1.9,13.1-10.2,40.2-23.3,40.2c-0.1,0-0.3,0-0.4,0c-24.1-1-45.7-4.8-45.9-4.9l-2.6-0.5l-2.3,1.1l-31,15l-66,31.9l71.3-17l28-6.6
				c9.8,1.8,50.4,8.9,60.9,8.9c0.9,0,1.7,0,2.4-0.2c6-0.9,16.7-6.6,25.4-16c8-8.6,17.5-23.6,17.5-46c0-4.6-3-7.6-9.1-9.1
				c-1.8-0.4-3.4-0.7-3.6-0.8L352.5,311.2L352.5,311.2z"/>
		</g>
	</g>
</g>
<path class="st1" d="M472.5,267.6c0,0,20.5,3.5,45.5-23.5s51-56,90-54c20.6,1.1,57,15.9,89.3,31c4.4,2,8.5,4.7,12.9,6.1
	c1.4,0.4,2.3-8.8-0.5-10.8c-2.9-2-4.6-3.2-4.6-3.2s-67-38-101-35s-67,20-90,55S472.5,267.6,472.5,267.6z"/>
</svg>
