<?xml version="1.0" encoding="utf-8"?>
<!-- Generator: Adobe Illustrator 24.0.0, SVG Export Plug-In . SVG Version: 6.00 Build 0)  -->
<svg version="1.1" id="Layer_1" xmlns="http://www.w3.org/2000/svg" xmlns:xlink="http://www.w3.org/1999/xlink" x="0px" y="0px"
	 viewBox="0 0 448 448" style="enable-background:new 0 0 448 448;" xml:space="preserve">
<style type="text/css">
	.st0{fill:#FFFFFF;}
</style>
<path class="st0" d="M160,64c-17.7,0-32,14.3-32,32s-14.3,32-32,32s-32-14.3-32-32c0-53,43-96,96-96h97c70.1,0,127,56.9,127,127
	c0,52.4-32.2,99.4-81,118.4l-63,24.5V288c0,17.7-14.3,32-32,32s-32-14.3-32-32v-18.1c0-26.4,16.2-50.1,40.8-59.6l63-24.5
	C304,176.3,320,153,320,127c0-34.8-28.2-63-63-63H160z M208,448c-22.1,0-40-17.9-40-40s17.9-40,40-40s40,17.9,40,40
	S230.1,448,208,448z"/>
</svg>
