<?xml version="1.0" encoding="utf-8"?>
<!-- Generator: Adobe Illustrator 24.0.0, SVG Export Plug-In . SVG Version: 6.00 Build 0)  -->
<svg version="1.1" id="Layer_1" xmlns="http://www.w3.org/2000/svg" xmlns:xlink="http://www.w3.org/1999/xlink" x="0px" y="0px"
	 viewBox="0 0 640 512" style="enable-background:new 0 0 640 512;" xml:space="preserve">
<style type="text/css">
	.st0{fill:#00C58E;}
</style>
<path class="st0" d="M320,0c17.7,0,32,14.3,32,32v64h128c35.3,0,64,28.7,64,64v288c0,35.3-28.7,64-64,64H160c-35.3,0-64-28.7-64-64
	V160c0-35.3,28.7-64,64-64h128V32C288,14.3,302.3,0,320,0z M208,384c-8.8,0-16,7.2-16,16s7.2,16,16,16h32c8.8,0,16-7.2,16-16
	s-7.2-16-16-16H208z M304,384c-8.8,0-16,7.2-16,16s7.2,16,16,16h32c8.8,0,16-7.2,16-16s-7.2-16-16-16H304z M400,384
	c-8.8,0-16,7.2-16,16s7.2,16,16,16h32c8.8,0,16-7.2,16-16s-7.2-16-16-16H400z M264,256c0-22.1-17.9-40-40-40s-40,17.9-40,40
	s17.9,40,40,40S264,278.1,264,256z M416,296c22.1,0,40-17.9,40-40s-17.9-40-40-40s-40,17.9-40,40S393.9,296,416,296z M48,224h16v192
	H48c-26.5,0-48-21.5-48-48v-96C0,245.5,21.5,224,48,224z M592,224c26.5,0,48,21.5,48,48v96c0,26.5-21.5,48-48,48h-16V224H592z"/>
</svg>
